<svg id="visual" viewBox="0 0 900 600" width="900" height="600" xmlns="http://www.w3.org/2000/svg" xmlns:xlink="http://www.w3.org/1999/xlink" version="1.1"><g><g transform="translate(434 331)"><path d="M0 -57.1L57.1 0L0 57.1L-57.1 0Z" fill="none" stroke="#c9c9c9" stroke-width="2"></path></g><g transform="translate(735 210)"><path d="M0 -16L16 0L0 16L-16 0Z" fill="none" stroke="#c9c9c9" stroke-width="2"></path></g><g transform="translate(777 423)"><path d="M0 -45L45 0L0 45L-45 0Z" fill="none" stroke="#c9c9c9" stroke-width="2"></path></g><g transform="translate(213 485)"><path d="M0 -17L17 0L0 17L-17 0Z" fill="none" stroke="#c9c9c9" stroke-width="2"></path></g><g transform="translate(361 426)"><path d="M0 -26L26 0L0 26L-26 0Z" stroke="#c9c9c9" fill="none" stroke-width="2"></path></g><g transform="translate(107 220)"><path d="M0 -41L41 0L0 41L-41 0Z" stroke="#c9c9c9" fill="none" stroke-width="2"></path></g><g transform="translate(361 90)"><path d="M0 -50L50 0L0 50L-50 0Z" stroke="#c9c9c9" fill="none" stroke-width="2"></path></g><g transform="translate(194 89)"><path d="M0 -19L19 0L0 19L-19 0Z" stroke="#c9c9c9" fill="none" stroke-width="2"></path></g><g transform="translate(642 530)"><path d="M0 -26L26 0L0 26L-26 0Z" stroke="#c9c9c9" fill="none" stroke-width="2"></path></g><g transform="translate(476 525)"><path d="M0 -33L33 0L0 33L-33 0Z" stroke="#c9c9c9" fill="none" stroke-width="2"></path></g><g transform="translate(569 324)"><path d="M0 -55L55 0L0 55L-55 0Z" stroke="#c9c9c9" fill="none" stroke-width="2"></path></g><g transform="translate(660 84)"><path d="M0 -54L54 0L0 54L-54 0Z" stroke="#c9c9c9" fill="none" stroke-width="2"></path></g><g transform="translate(554 195)"><path d="M0 -16L16 0L0 16L-16 0Z" stroke="#c9c9c9" fill="none" stroke-width="2"></path></g><g transform="translate(81 358)"><path d="M0 -44L44 0L0 44L-44 0Z" stroke="#c9c9c9" fill="none" stroke-width="2"></path></g><g transform="translate(421 204)"><path d="M0 -22L22 0L0 22L-22 0Z" stroke="#c9c9c9" fill="none" stroke-width="2"></path></g><g transform="translate(214 343)"><path d="M0 -39L39 0L0 39L-39 0Z" stroke="#c9c9c9" fill="none" stroke-width="2"></path></g><g transform="translate(269 194)"><path d="M0 -24L24 0L0 24L-24 0Z" stroke="#c9c9c9" fill="none" stroke-width="2"></path></g><g transform="translate(66 542)"><path d="M0 -53L53 0L0 53L-53 0Z" stroke="#c9c9c9" fill="none" stroke-width="2"></path></g><g transform="translate(61 64)"><path d="M0 -46L46 0L0 46L-46 0Z" stroke="#c9c9c9" fill="none" stroke-width="2"></path></g><g transform="translate(476 89)"><path d="M0 -21L21 0L0 21L-21 0Z" stroke="#c9c9c9" fill="none" stroke-width="2"></path></g><g transform="translate(664 387)"><path d="M0 -38L38 0L0 38L-38 0Z" stroke="#c9c9c9" fill="none" stroke-width="2"></path></g><g transform="translate(840 288)"><path d="M0 -52L52 0L0 52L-52 0Z" stroke="#c9c9c9" fill="none" stroke-width="2"></path></g><g transform="translate(837 129)"><path d="M0 -16L16 0L0 16L-16 0Z" stroke="#c9c9c9" fill="none" stroke-width="2"></path></g><g transform="translate(833 543)"><path d="M0 -52L52 0L0 52L-52 0Z" stroke="#c9c9c9" fill="none" stroke-width="2"></path></g><g transform="translate(326 537)"><path d="M0 -23L23 0L0 23L-23 0Z" stroke="#c9c9c9" fill="none" stroke-width="2"></path></g></g></svg>