<svg id="visual" viewBox="0 0 900 600" width="900" height="600" xmlns="http://www.w3.org/2000/svg" xmlns:xlink="http://www.w3.org/1999/xlink" version="1.1"><g fill="#4c3952"><circle r="14" cx="220" cy="438"></circle><circle r="3" cx="798" cy="504"></circle><circle r="7" cx="484" cy="582"></circle><circle r="8" cx="819" cy="154"></circle><circle r="5" cx="794" cy="362"></circle><circle r="4" cx="637" cy="155"></circle><circle r="6" cx="691" cy="15"></circle><circle r="12" cx="312" cy="429"></circle><circle r="12" cx="249" cy="69"></circle><circle r="3" cx="718" cy="229"></circle><circle r="10" cx="515" cy="317"></circle><circle r="8" cx="548" cy="332"></circle><circle r="9" cx="745" cy="36"></circle><circle r="8" cx="658" cy="420"></circle><circle r="2" cx="857" cy="224"></circle><circle r="2" cx="252" cy="206"></circle><circle r="2" cx="217" cy="253"></circle><circle r="10" cx="835" cy="545"></circle><circle r="12" cx="231" cy="121"></circle><circle r="7" cx="776" cy="335"></circle><circle r="11" cx="155" cy="157"></circle><circle r="8" cx="789" cy="586"></circle><circle r="2" cx="475" cy="164"></circle><circle r="7" cx="399" cy="80"></circle><circle r="6" cx="383" cy="389"></circle><circle r="6" cx="266" cy="426"></circle><circle r="12" cx="157" cy="293"></circle><circle r="11" cx="36" cy="117"></circle><circle r="4" cx="62" cy="9"></circle><circle r="11" cx="467" cy="53"></circle><circle r="3" cx="294" cy="500"></circle><circle r="8" cx="825" cy="235"></circle><circle r="9" cx="888" cy="443"></circle><circle r="5" cx="87" cy="67"></circle><circle r="6" cx="717" cy="564"></circle><circle r="4" cx="177" cy="572"></circle><circle r="9" cx="102" cy="283"></circle><circle r="3" cx="408" cy="589"></circle><circle r="8" cx="800" cy="218"></circle><circle r="8" cx="744" cy="357"></circle><circle r="8" cx="160" cy="259"></circle><circle r="11" cx="850" cy="365"></circle><circle r="2" cx="461" cy="129"></circle><circle r="4" cx="846" cy="54"></circle><circle r="4" cx="605" cy="96"></circle><circle r="8" cx="643" cy="243"></circle><circle r="4" cx="700" cy="310"></circle><circle r="6" cx="47" cy="583"></circle><circle r="10" cx="132" cy="409"></circle><circle r="11" cx="403" cy="280"></circle><circle r="8" cx="296" cy="397"></circle><circle r="2" cx="226" cy="538"></circle><circle r="8" cx="64" cy="259"></circle><circle r="7" cx="637" cy="550"></circle><circle r="3" cx="760" cy="284"></circle><circle r="3" cx="659" cy="482"></circle><circle r="4" cx="785" cy="6"></circle><circle r="2" cx="427" cy="234"></circle><circle r="7" cx="349" cy="392"></circle><circle r="11" cx="350" cy="154"></circle><circle r="10" cx="199" cy="16"></circle><circle r="2" cx="484" cy="280"></circle><circle r="11" cx="573" cy="377"></circle><circle r="6" cx="725" cy="180"></circle><circle r="6" cx="7" cy="114"></circle><circle r="11" cx="654" cy="118"></circle><circle r="10" cx="277" cy="316"></circle><circle r="12" cx="301" cy="290"></circle><circle r="10" cx="228" cy="398"></circle><circle r="5" cx="766" cy="481"></circle><circle r="10" cx="323" cy="264"></circle><circle r="9" cx="187" cy="399"></circle><circle r="4" cx="433" cy="508"></circle><circle r="5" cx="79" cy="297"></circle><circle r="10" cx="500" cy="372"></circle><circle r="6" cx="452" cy="563"></circle><circle r="8" cx="603" cy="198"></circle><circle r="10" cx="469" cy="96"></circle><circle r="8" cx="542" cy="97"></circle><circle r="7" cx="547" cy="480"></circle><circle r="4" cx="55" cy="67"></circle><circle r="4" cx="448" cy="193"></circle><circle r="7" cx="187" cy="121"></circle><circle r="7" cx="878" cy="51"></circle><circle r="6" cx="54" cy="203"></circle><circle r="6" cx="296" cy="209"></circle><circle r="4" cx="590" cy="473"></circle><circle r="5" cx="868" cy="424"></circle><circle r="11" cx="580" cy="104"></circle><circle r="11" cx="534" cy="204"></circle><circle r="12" cx="86" cy="167"></circle><circle r="2" cx="111" cy="118"></circle><circle r="8" cx="338" cy="518"></circle><circle r="5" cx="53" cy="538"></circle><circle r="4" cx="694" cy="270"></circle></g></svg>