<svg xmlns="http://www.w3.org/2000/svg" class="img-fluid" id="outputsvg" style="transform: matrix(0.769231, 0, 0, 0.769231, 0, 0); transform-origin: 50% 50%; cursor: move; max-height: 357.22px; transition: transform 200ms ease-in-out 0s;" width="368" height="565" viewBox="0 0 3680 5650"><g id="l6mpCQtF3KDLNHoxMlEPmF8" fill="rgb(191,203,200)" style="transform: none;"><g style="transform: none;"><path id="pzOmYAU8H" d="M2300 4915 c0 -10 -10 -15 -30 -15 -16 0 -45 -8 -65 -17 -30 -14 -35 -22 -35 -50 0 -30 3 -33 30 -33 37 0 100 29 100 47 0 8 13 13 35 13 33 0 35 2 35 35 0 33 -2 35 -35 35 -24 0 -35 -5 -35 -15z"/><path id="pll5X3uyz" d="M2410 3550 c0 -5 -7 -10 -16 -10 -14 0 -15 -7 -10 -42 4 -23 11 -45 15 -48 4 -3 11 -27 15 -55 3 -27 11 -51 16 -53 6 -2 10 -19 10 -38 0 -19 5 -34 10 -34 6 0 10 -16 10 -35 0 -33 2 -35 35 -35 33 0 35 2 35 35 0 19 -4 35 -10 35 -5 0 -10 16 -10 35 0 19 -4 35 -9 35 -4 0 -11 24 -14 52 -4 29 -11 54 -17 56 -5 2 -10 14 -10 27 0 51 -12 85 -31 85 -11 0 -19 -4 -19 -10z"/><path id="p11qMtHnJK" d="M2010 3445 c0 -33 2 -35 35 -35 33 0 35 2 35 35 0 33 -2 35 -35 35 -33 0 -35 -2 -35 -35z"/><path id="p275a37IQ" d="M220 3405 c0 -34 1 -35 40 -35 39 0 40 1 40 35 0 34 -1 35 -40 35 -39 0 -40 -1 -40 -35z"/><path id="pPIiwBnwF" d="M2030 3345 c0 -33 2 -35 35 -35 33 0 35 2 35 35 0 33 -2 35 -35 35 -33 0 -35 -2 -35 -35z"/><path id="pTUDyK31D" d="M280 3240 c0 -39 1 -40 35 -40 19 0 35 -4 35 -10 0 -5 16 -10 35 -10 33 0 35 2 35 35 0 33 -2 35 -35 35 -24 0 -35 5 -35 15 0 10 -11 15 -35 15 -34 0 -35 -1 -35 -40z"/><path id="pnv2vOzu7" d="M2050 3185 c0 -33 2 -35 35 -35 33 0 35 2 35 35 0 33 -2 35 -35 35 -33 0 -35 -2 -35 -35z"/><path id="p13jM4UUXT" d="M290 3135 c0 -28 4 -35 19 -35 14 0 20 -10 25 -40 6 -38 8 -40 41 -40 32 0 35 3 35 28 0 47 -11 72 -31 72 -14 0 -19 7 -19 25 0 22 -4 25 -35 25 -33 0 -35 -2 -35 -35z"/><path id="pZzE4KkzM" d="M460 3065 c0 -19 5 -35 10 -35 6 0 10 -7 10 -15 0 -10 11 -15 35 -15 33 0 35 2 35 35 0 19 -4 35 -10 35 -5 0 -10 7 -10 15 0 10 -11 15 -35 15 -33 0 -35 -2 -35 -35z"/><path id="pKzRtitWA" d="M1786 3048 c-3 -13 -7 -49 -10 -81 -4 -32 -16 -86 -28 -120 -20 -55 -22 -78 -20 -212 2 -101 7 -152 15 -157 7 -4 112 -8 235 -8 l222 0 0 31 c0 19 -7 37 -17 45 -10 7 -15 15 -11 19 4 4 20 -2 36 -14 19 -13 45 -21 71 -21 l41 0 0 54 c0 52 -1 54 -31 60 -17 3 -49 6 -70 6 -45 0 -54 11 -50 62 2 25 -3 44 -14 54 -11 12 -13 20 -6 27 15 15 14 80 -1 95 -9 9 -9 12 0 12 7 0 12 16 12 40 0 36 3 40 25 40 22 0 25 4 25 35 0 34 -1 35 -39 35 -22 0 -43 5 -46 10 -4 6 -72 10 -170 10 -163 0 -165 0 -169 -22z"/><path id="p18tNRFpUf" d="M2230 3025 c0 -33 2 -35 35 -35 33 0 35 2 35 35 0 33 -2 35 -35 35 -33 0 -35 -2 -35 -35z"/><path id="peSwfGXXa" d="M3180 2965 c0 -33 2 -35 35 -35 33 0 35 2 35 35 0 33 -2 35 -35 35 -33 0 -35 -2 -35 -35z"/><path id="ps7kvuRRe" d="M500 2945 c0 -33 2 -35 35 -35 33 0 35 2 35 35 0 33 -2 35 -35 35 -33 0 -35 -2 -35 -35z"/><path id="pwOFDKmkg" d="M2560 2946 c0 -19 7 -41 15 -50 8 -8 15 -19 15 -25 0 -6 16 -11 35 -11 33 0 35 2 35 35 0 19 -4 35 -9 35 -5 0 -12 11 -15 25 -5 21 -12 25 -41 25 -33 0 -35 -2 -35 -34z"/><path id="pJSwqEbst" d="M3380 2905 c0 -27 4 -35 18 -35 17 0 42 36 42 60 0 6 -13 10 -30 10 -28 0 -30 -3 -30 -35z"/><path id="p5bd6IJ1m" d="M3090 2865 c0 -33 2 -35 35 -35 33 0 35 2 35 35 0 33 -2 35 -35 35 -33 0 -35 -2 -35 -35z"/><path id="pnkokY20w" d="M580 2825 c0 -33 2 -35 35 -35 33 0 35 2 35 35 0 33 -2 35 -35 35 -33 0 -35 -2 -35 -35z"/><path id="pqC7Lefk5" d="M2680 2815 c0 -32 2 -35 30 -35 17 0 30 -4 30 -10 0 -5 16 -10 35 -10 33 0 35 2 35 35 0 32 -2 35 -30 35 -16 0 -30 5 -30 10 0 6 -16 10 -35 10 -33 0 -35 -2 -35 -35z"/><path id="po0cpRLUY" d="M2890 2795 c0 -33 2 -35 35 -35 33 0 35 2 35 35 0 33 -2 35 -35 35 -33 0 -35 -2 -35 -35z"/><path id="pjHshS2gW" d="M670 2785 c0 -33 2 -35 35 -35 24 0 35 -5 35 -15 0 -10 11 -15 35 -15 33 0 35 2 35 35 0 33 -2 35 -35 35 -24 0 -35 5 -35 15 0 10 -11 15 -35 15 -33 0 -35 -2 -35 -35z"/><path id="p8Bwy0757" d="M830 2715 c0 -33 2 -35 35 -35 33 0 35 2 35 35 0 33 -2 35 -35 35 -33 0 -35 -2 -35 -35z"/></g></g><g id="l71tFnzSrphIqJpWXfQZv1Y" fill="rgb(225,160,140)" style="transform: none;"><g style="transform: none;"><path id="pxXwOcEqs" d="M1970 5643 c-30 -11 -40 -37 -40 -103 0 -94 8 -102 100 -98 68 3 76 5 87 28 9 18 24 27 55 33 97 17 143 24 146 22 2 -2 -29 -21 -70 -43 -90 -49 -278 -165 -278 -172 0 -3 33 -123 73 -267 50 -179 70 -266 63 -273 -16 -16 39 -12 77 6 22 11 39 29 48 51 7 19 15 30 17 24 2 -6 15 -11 29 -11 37 0 163 52 163 67 0 7 -6 13 -12 13 -19 0 -58 99 -58 145 0 22 -4 54 -9 71 -7 26 1 61 45 195 78 241 82 287 23 308 -32 11 -429 15 -459 4z"/><path id="p187u1e4Ic" d="M2410 3556 c0 -15 -125 -32 -307 -43 -68 -4 -103 -10 -103 -18 0 -6 9 -51 20 -101 11 -49 20 -101 20 -116 0 -24 4 -28 30 -28 17 0 30 -4 30 -10 0 -5 -11 -10 -25 -10 -22 0 -25 -4 -25 -35 0 -28 4 -35 20 -35 14 0 20 -7 20 -21 0 -21 3 -22 61 -15 34 3 136 6 225 6 l164 0 0 40 c0 31 -40 189 -96 383 -6 20 -34 23 -34 3z"/><path id="p6v0cJrnu" d="M207 3447 c-20 -5 -42 -18 -48 -28 -5 -10 -16 -19 -23 -19 -20 0 -42 -30 -64 -90 -12 -30 -21 -48 -21 -40 -1 12 -4 11 -18 -3 -14 -14 -19 -40 -21 -130 -2 -64 1 -130 7 -154 14 -50 62 -96 252 -240 74 -56 179 -143 234 -194 107 -99 274 -228 335 -259 39 -20 94 -96 156 -214 22 -42 35 -56 51 -56 27 0 92 28 161 68 41 25 52 28 52 15 0 -22 67 -14 138 17 45 20 52 26 52 51 0 16 -15 51 -32 78 -28 42 -37 49 -58 45 -22 -4 -31 6 -85 93 -80 132 -133 187 -225 234 -41 21 -67 38 -57 39 12 0 17 6 15 17 -4 22 -240 131 -285 132 -31 1 -33 -1 -33 -35 0 -34 -1 -36 -27 -29 -59 14 -120 65 -79 65 9 0 16 -7 16 -15 0 -10 11 -15 35 -15 33 0 35 2 35 35 0 33 -2 35 -35 35 -19 0 -35 5 -35 11 0 6 -6 17 -14 24 -7 8 -16 42 -20 77 -5 43 -21 91 -50 153 -24 50 -49 102 -55 118 -9 24 -16 27 -56 27 -29 0 -45 -4 -45 -12 0 -9 -4 -8 -10 2 -5 8 -10 35 -10 60 -2 69 -20 114 -50 118 -13 2 -29 10 -35 16 -7 10 -20 10 -48 3z"/><path id="p6T5C6UDP" d="M2181 3049 c-35 -4 -66 -10 -68 -13 -11 -11 -5 -166 7 -181 10 -12 10 -19 2 -27 -16 -16 -15 -74 2 -90 8 -8 11 -27 8 -53 -5 -51 13 -69 77 -71 25 -1 54 -3 64 -3 11 -1 17 -9 17 -26 0 -30 -16 -32 -50 -5 -38 30 -120 25 -120 -6 0 -8 7 -25 15 -38 15 -22 14 -24 -7 -30 -22 -7 -22 -7 -4 -19 10 -7 28 -22 39 -34 19 -21 30 -23 112 -23 58 0 97 5 107 13 8 6 25 39 37 72 13 33 29 72 37 87 8 15 15 51 16 80 0 29 0 80 1 113 1 33 -5 74 -13 92 -8 18 -11 35 -8 39 13 12 98 17 98 5 0 -6 6 -11 14 -11 21 0 30 -54 28 -176 l-2 -111 158 -7 c86 -4 171 -9 189 -12 31 -6 32 -8 35 -63 l3 -56 158 -3 158 -3 6 -30 c5 -24 15 -36 47 -50 51 -23 102 -25 110 -3 12 30 6 84 -9 90 -12 5 -15 35 -14 180 0 96 -3 179 -6 184 -4 6 -1 25 6 44 11 29 10 38 -4 60 -25 37 -92 68 -163 74 -61 4 -61 4 -72 -26 -27 -77 -125 -149 -244 -177 -122 -29 -188 -14 -262 57 -28 27 -53 48 -58 48 -4 0 -8 10 -8 23 0 46 -11 51 -109 44 -82 -5 -91 -4 -91 12 0 32 -22 41 -99 40 -42 -1 -105 -5 -140 -10z"/><path id="pt1WnEn3c" d="M2082 1149 c-44 -22 -122 -102 -122 -125 0 -8 7 -14 15 -14 8 0 15 -2 15 -5 0 -2 -22 -46 -49 -97 -47 -89 -101 -238 -101 -279 0 -21 -16 -26 -23 -6 -3 6 -6 0 -6 -15 -1 -34 19 -45 144 -83 111 -33 228 -86 277 -125 29 -23 47 -30 82 -30 51 0 68 17 81 79 l7 35 20 -27 c20 -27 68 -38 68 -15 0 6 10 22 22 35 31 33 30 116 -2 206 -22 63 -23 73 -13 164 12 114 17 120 123 152 46 14 70 27 70 37 0 19 -83 71 -144 89 -27 8 -80 15 -118 15 -63 0 -68 -2 -68 -22 0 -21 -1 -21 -27 4 -38 36 -74 48 -146 48 -43 0 -75 -7 -105 -21z"/></g></g><g id="l38mFyiuQGPChfSW0UXTvIg" fill="rgb(227,149,126)" style="transform: none;"><g style="transform: none;"><path id="p35mHqOpT" d="M2277 5559 c-10 -6 -29 -8 -43 -5 -15 4 -34 0 -49 -10 -16 -10 -36 -14 -54 -11 -24 5 -30 2 -42 -26 -12 -28 -19 -32 -58 -35 -33 -2 -52 2 -73 18 -34 25 -33 26 -7 -100 18 -82 25 -100 40 -100 10 0 63 28 118 63 55 34 136 82 181 106 44 24 78 46 75 49 -3 3 2 14 11 23 14 15 14 19 3 23 -38 12 -86 14 -102 5z"/><path id="p15ZCfW7Hv" d="M2260 4908 c-44 -31 -79 -70 -70 -76 11 -8 -44 -29 -62 -24 -10 2 -18 -1 -18 -7 0 -7 5 -9 13 -5 6 4 3 -2 -7 -14 -19 -22 -19 -22 7 -22 14 0 32 7 41 15 8 8 18 15 23 15 4 0 47 19 95 42 64 30 88 46 88 60 0 16 -3 17 -21 8 -11 -7 -23 -9 -27 -6 -3 3 0 6 6 6 18 0 14 27 -4 34 -19 7 -11 11 -64 -26z"/><path id="pz62hwdDz" d="M2013 3468 c3 -24 13 -83 21 -133 9 -49 16 -107 16 -127 0 -21 5 -38 10 -38 6 0 10 -12 10 -26 0 -23 3 -25 42 -22 32 2 44 8 46 21 3 14 -1 18 -15 13 -17 -5 -18 1 -16 90 2 110 -1 121 -30 130 -30 9 -50 32 -43 49 3 8 1 15 -5 15 -6 0 -9 8 -8 18 3 22 -10 52 -23 52 -7 0 -8 -16 -5 -42z"/><path id="p1FsyL2iMV" d="M2441 2999 c-52 -10 -57 -14 -43 -32 7 -8 9 -17 5 -20 -3 -4 -1 -7 5 -7 7 0 12 -15 12 -35 0 -20 7 -50 16 -67 19 -36 12 -73 -16 -88 l-21 -11 21 -26 c23 -30 25 -51 7 -78 -8 -11 -16 -29 -19 -40 -3 -11 -15 -44 -27 -72 l-21 -53 25 0 c20 0 25 5 25 25 0 14 5 25 10 25 6 0 10 14 10 30 0 17 5 30 10 30 6 0 10 6 10 14 0 20 25 27 118 33 60 4 82 9 82 19 0 8 -7 14 -16 14 -13 0 -15 7 -11 33 12 63 10 173 -3 197 -9 18 -4 16 18 -10 28 -32 31 -33 32 -13 0 12 -16 49 -35 82 l-36 61 -57 -1 c-31 -1 -77 -5 -101 -10z"/><path id="pJs03Dceb" d="M544 2875 c3 -8 2 -15 -2 -15 -4 0 -5 -24 -2 -52 5 -52 6 -54 55 -78 43 -21 61 -25 129 -22 43 1 83 5 89 9 5 3 -5 14 -24 24 -43 23 -31 25 15 2 19 -9 33 -20 31 -24 -3 -4 5 -5 17 -1 12 3 19 1 15 -4 -3 -5 3 -10 14 -10 11 0 19 7 18 16 0 9 -42 35 -112 67 -62 29 -136 64 -166 78 -63 29 -86 32 -77 10z"/><path id="pr2FsJDC5" d="M2970 2560 l0 -70 35 0 c39 0 49 24 14 33 -19 5 -20 10 -14 56 6 47 5 51 -14 51 -19 0 -21 -6 -21 -70z"/><path id="psxvxoP6w" d="M3118 2522 c-30 -3 -38 -7 -38 -23 0 -15 7 -19 35 -19 19 0 71 -13 117 -30 82 -30 138 -38 138 -20 0 5 -10 14 -21 21 -15 8 -18 13 -10 18 9 6 8 11 -3 21 -9 7 -14 16 -11 20 6 9 -143 17 -207 12z"/><path id="p60KT2opR" d="M2150 2484 c0 -20 5 -24 30 -24 27 0 29 2 18 19 -7 11 -20 22 -30 24 -14 4 -18 -1 -18 -19z"/><path id="piPx06B4E" d="M3426 2445 c-4 -16 -11 -22 -21 -19 -10 4 -15 0 -15 -15 0 -17 6 -21 35 -21 34 0 35 1 35 40 0 46 -24 56 -34 15z"/><path id="port0Sw6r" d="M1358 2292 c-15 -3 -13 -10 15 -52 18 -28 35 -50 40 -50 4 0 7 16 7 35 0 28 -4 35 -19 35 -11 0 -21 8 -23 18 -2 10 -10 16 -20 14z"/><path id="p18jR43aX1" d="M1195 2130 c-44 -27 -101 -57 -127 -67 -27 -9 -48 -23 -48 -31 0 -19 83 -12 130 11 18 10 43 17 54 17 12 0 54 10 94 21 63 19 72 25 72 45 0 21 -3 22 -26 14 -34 -13 -41 -13 -26 2 20 20 14 34 -15 35 -18 1 -57 -16 -108 -47z"/><path id="p1CeT8nfKS" d="M2297 1133 l-28 -4 65 -70 c63 -66 123 -167 141 -234 l8 -30 7 25 c20 65 11 110 -34 179 -67 102 -71 111 -46 111 13 0 20 5 18 13 -5 12 -79 18 -131 10z"/><path id="pqIlMJJZs" d="M2130 791 c-5 -11 -10 -39 -10 -64 0 -49 21 -76 80 -100 83 -34 87 -32 33 19 -41 39 -55 61 -68 107 -9 31 -18 57 -20 57 -3 0 -9 -9 -15 -19z"/><path id="pXj7kBSDi" d="M1950 540 c0 -16 7 -20 35 -20 40 0 49 24 13 34 -38 10 -48 7 -48 -14z"/><path id="ppvho9eU0" d="M2393 528 c-37 -41 -35 -55 5 -62 69 -11 73 -10 57 22 -8 15 -16 35 -19 45 -7 23 -18 22 -43 -5z"/><path id="pTIJcaftU" d="M2190 445 c0 -15 6 -25 14 -25 8 0 16 -5 18 -11 2 -6 19 -9 38 -7 l35 3 -44 33 c-53 39 -61 40 -61 7z"/><path id="pTPKp9oHV" d="M2342 420 c-7 -11 -19 -20 -27 -20 -8 0 -15 -7 -15 -15 0 -10 11 -15 35 -15 33 0 35 2 35 35 0 39 -9 44 -28 15z"/></g></g><g id="lbDv7vIOayrPX7IKpzRyw2" fill="rgb(227,136,110)" style="transform: none;"><g style="transform: none;"><path id="pCPTwqSQv" d="M1937 5458 c8 -42 6 -41 31 -20 l21 18 -29 18 -30 17 7 -33z"/><path id="p3qejuks5" d="M2226 4851 c2 -3 -6 -11 -18 -18 -22 -12 -21 -12 15 -13 29 0 37 4 37 18 0 11 -7 18 -20 18 -10 0 -17 -2 -14 -5z"/><path id="pdrdS0KEX" d="M2050 3268 c0 -24 3 -67 6 -95 l7 -53 63 0 c58 0 64 2 64 21 0 19 -4 21 -43 15 l-44 -7 5 55 c4 47 2 56 -17 68 -11 7 -21 18 -21 25 0 7 -4 13 -10 13 -5 0 -10 -19 -10 -42z"/><path id="pziLFkLvf" d="M2418 2993 c-33 -5 -36 -18 -8 -33 15 -8 20 -21 20 -51 0 -22 7 -53 15 -69 16 -32 12 -72 -10 -90 -11 -9 -10 -18 3 -50 16 -38 42 -54 42 -27 0 6 1 76 2 154 2 128 4 144 20 149 10 3 16 10 13 15 -6 9 -45 10 -97 2z"/><path id="p1DQAGVAfm" d="M550 2862 c0 -5 10 -14 23 -21 12 -6 14 -10 5 -7 -18 5 -28 -12 -28 -50 0 -28 58 -62 111 -66 28 -3 34 1 43 25 8 22 7 30 -4 37 -20 13 -3 12 21 0 16 -9 19 -7 19 8 0 14 -19 27 -75 51 -74 31 -115 39 -115 23z m90 -47 c14 -8 21 -14 15 -14 -5 0 -21 6 -35 14 -14 8 -20 14 -15 14 6 0 21 -6 35 -14z"/><path id="pxMXH3m1r" d="M2468 2653 c-25 -4 -58 -35 -58 -55 0 -14 47 -8 60 7 8 10 30 15 61 15 42 0 49 3 49 20 0 17 -6 20 -42 19 -24 -1 -55 -4 -70 -6z"/><path id="pRbp7MIV6" d="M2810 2640 c0 -16 7 -20 35 -20 40 0 49 24 13 34 -38 10 -48 7 -48 -14z"/><path id="pNCwlPxIJ" d="M2900 2631 c0 -17 6 -21 35 -21 28 0 35 -4 35 -20 0 -29 27 -24 34 6 9 34 1 41 -56 49 -44 7 -48 6 -48 -14z"/><path id="p1HCNaMVaj" d="M2381 2516 c-22 -51 -33 -56 -112 -56 -52 0 -59 -2 -59 -20 0 -17 7 -20 48 -20 26 0 64 3 85 6 33 6 37 10 37 35 0 22 5 29 20 29 16 0 20 7 20 35 0 48 -17 44 -39 -9z"/><path id="p18UeooVAW" d="M3070 2500 c0 -14 7 -20 21 -20 31 0 193 -43 200 -53 4 -5 28 -12 54 -15 38 -4 47 -2 43 9 -6 19 -191 85 -260 93 -54 6 -58 5 -58 -14z"/><path id="pLOL0lzg4" d="M1350 2283 c0 -5 16 -30 34 -58 24 -35 31 -52 23 -57 -7 -5 -3 -8 11 -8 19 0 22 5 22 35 0 28 -4 35 -20 35 -16 0 -20 7 -20 30 0 25 -4 30 -25 30 -14 0 -25 -3 -25 -7z"/><path id="pbKYw6ZFx" d="M1256 2109 c-32 -10 -62 -16 -67 -14 -4 3 -30 -4 -56 -16 -26 -12 -64 -24 -85 -27 -33 -4 -36 -7 -27 -23 11 -22 25 -20 187 23 103 28 112 32 112 54 0 13 -1 24 -2 23 -2 -1 -29 -10 -62 -20z"/><path id="popoVQNf" d="M2200 1157 c0 -8 16 -18 35 -24 33 -11 35 -10 35 13 0 21 -5 24 -35 24 -22 0 -35 -5 -35 -13z"/><path id="pLIPozQeY" d="M2300 1120 c0 -21 16 -25 58 -14 39 11 27 34 -18 34 -33 0 -40 -3 -40 -20z"/><path id="p0BtSNFJ8" d="M2590 1073 c0 -5 16 -18 35 -31 l35 -22 0 30 c0 28 -3 30 -35 30 -19 0 -35 -3 -35 -7z"/><path id="pIXHEI1MW" d="M2130 707 c0 -31 35 -63 90 -82 l45 -16 -38 32 c-20 17 -44 44 -52 60 -19 35 -45 39 -45 6z"/><path id="p1HltXNkZz" d="M1810 603 c0 -29 4 -33 55 -52 31 -12 69 -21 85 -21 17 0 30 -4 30 -8 0 -11 69 -32 104 -32 52 0 21 25 -65 52 -113 37 -192 69 -201 82 -4 6 -8 -3 -8 -21z"/><path id="p1NaBdFR1" d="M2396 531 c-13 -14 -56 -113 -56 -128 0 -2 -7 -3 -15 -3 -8 0 -15 -4 -15 -10 0 -5 16 -10 35 -10 31 0 35 3 44 38 6 20 11 45 11 55 0 9 5 17 10 17 6 0 10 -11 10 -25 0 -22 4 -25 35 -25 41 0 43 6 11 31 -13 10 -26 32 -29 49 -7 35 -17 37 -41 11z"/><path id="p1H44pvusl" d="M2230 421 c0 -29 3 -31 36 -31 39 0 38 9 -6 40 l-30 21 0 -30z"/></g></g><g id="lb0l70bpGriqkpyAgYpX2v" fill="rgb(18,159,159)" style="transform: none;"><g style="transform: none;"><path id="p7M5RkrHA" d="M2245 4851 c-66 -33 -130 -68 -143 -78 l-22 -18 164 -595 c169 -616 267 -980 266 -992 0 -5 -7 -8 -15 -8 -19 0 -19 -1 13 -95 21 -63 32 -81 48 -83 12 -2 30 -19 43 -42 55 -98 116 -139 217 -148 117 -9 286 39 339 98 18 20 18 20 -12 20 -36 0 15 -127 -418 1038 -184 497 -335 916 -335 933 0 16 -5 29 -12 29 -7 0 -67 -27 -133 -59z"/><path id="pmuYVs5gY" d="M3112 3515 c7 -56 66 -157 145 -246 85 -97 152 -213 160 -277 3 -33 11 -52 19 -52 21 0 37 99 32 206 -10 206 -84 314 -252 366 -39 12 -76 28 -82 35 -20 23 -27 14 -22 -32z"/><path id="pBfrGpJgf" d="M1170 3325 c-399 -24 -746 -46 -773 -49 -27 -3 -47 -1 -47 4 0 6 -9 10 -20 10 -18 0 -19 -5 -14 -67 8 -89 20 -132 44 -163 l20 -25 -10 28 c-23 65 1 172 37 165 9 -2 28 -32 43 -69 15 -36 36 -79 48 -96 11 -16 26 -60 32 -99 7 -38 13 -78 15 -89 6 -31 395 -204 490 -217 82 -11 386 4 535 27 117 18 110 18 110 0 0 -16 20 -19 57 -9 18 5 22 13 21 44 0 21 9 65 21 99 11 33 23 86 27 118 11 114 -5 104 152 101 131 -3 137 -4 147 -26 5 -12 14 -21 20 -19 14 5 19 57 6 70 -6 6 -11 28 -11 49 0 27 -4 38 -15 38 -14 0 -19 17 -30 120 -12 106 -6 100 -99 99 -44 -1 -407 -21 -806 -44z m564 -509 l-6 -27 -147 7 c-80 4 -147 8 -149 9 -3 2 302 41 306 39 2 -1 0 -14 -4 -28z"/><path id="pW6U5naKX" d="M1740 2505 c0 -33 2 -35 35 -35 41 0 49 24 10 34 -14 4 -25 13 -25 21 0 8 -4 15 -10 15 -5 0 -10 -16 -10 -35z"/><path id="pdGa6nNNs" d="M2108 2503 c-33 -8 -20 -33 17 -33 28 0 35 4 35 20 0 20 -14 23 -52 13z"/></g></g><g id="l4td1ZxLCntbKBHaYsWvWSN" fill="rgb(16,150,151)" style="transform: none;"><g style="transform: none;"><path id="pmn0qyzop" d="M2570 4931 c0 -11 4 -30 10 -43 5 -13 41 -111 81 -218 223 -609 372 -1010 389 -1046 10 -23 22 -55 26 -70 9 -41 72 -159 100 -189 13 -14 24 -30 24 -35 0 -5 6 -13 13 -17 6 -4 19 -21 27 -38 8 -16 48 -78 87 -138 40 -60 78 -126 84 -148 13 -42 33 -51 42 -19 15 57 -67 219 -166 328 -96 106 -128 168 -206 399 -28 81 -142 396 -255 698 -194 521 -206 550 -230 553 -20 3 -26 -1 -26 -17z"/><path id="p13oeLM6Td" d="M2397 4915 c-49 -12 -71 -25 -46 -25 8 -1 3 -7 -11 -15 -16 -9 -19 -14 -10 -15 12 0 112 -260 370 -952 194 -524 363 -977 375 -1006 l21 -52 41 29 c39 28 73 67 73 83 0 5 -8 8 -19 8 -22 0 1 -60 -426 1095 -169 457 -310 837 -313 846 -6 15 -13 15 -55 4z"/><path id="pg1TSg1Vs" d="M2000 3480 c0 -23 4 -30 20 -30 20 0 25 15 14 44 -11 28 -34 18 -34 -14z"/><path id="pKSt6pMAM" d="M1855 3419 c-55 -5 -377 -24 -715 -44 -338 -19 -657 -38 -707 -41 -90 -6 -93 -6 -93 15 0 15 -6 21 -21 21 -18 0 -20 -4 -14 -47 10 -71 15 -83 33 -84 9 0 26 -2 36 -4 11 -2 25 -1 30 3 6 4 20 8 31 8 137 11 1574 93 1589 91 12 -1 26 -6 33 -10 7 -4 10 -1 8 10 -2 10 -7 35 -10 56 -6 37 -6 37 -53 36 -26 -1 -92 -6 -147 -10z"/><path id="pvHAtzCpj" d="M2500 3105 c0 -28 4 -35 20 -35 21 0 24 10 14 48 -10 36 -34 27 -34 -13z"/><path id="p1GA6t35rT" d="M2530 3015 c0 -28 4 -35 20 -35 22 0 26 20 10 51 -16 30 -30 23 -30 -16z"/><path id="p2BoW7kA5" d="M2110 2980 c0 -22 4 -40 9 -40 5 0 7 9 4 19 -3 11 4 28 16 40 l21 21 -25 0 c-22 0 -25 -4 -25 -40z"/><path id="p14dsdDPOQ" d="M1645 2869 c-33 -5 -157 -23 -275 -40 -118 -16 -282 -42 -365 -56 -82 -14 -160 -26 -172 -27 -30 -1 -29 -5 10 -21 24 -10 44 -11 77 -4 190 40 458 54 749 40 l84 -4 18 49 c11 27 19 55 19 62 0 14 -53 14 -145 1z"/><path id="pJ3AlbIaf" d="M2118 2503 c-10 -2 -18 -11 -18 -19 0 -10 13 -14 45 -14 47 0 58 12 26 30 -20 10 -25 11 -53 3z"/></g></g><g id="l7f6gvg6ub3exjaXFkTwtHd" fill="rgb(14,141,141)" style="transform: none;"><g style="transform: none;"><path id="pQEqro8Bi" d="M2465 4930 c-38 -10 -65 -18 -58 -19 7 0 10 -8 7 -16 -4 -8 -1 -15 5 -15 6 0 11 -6 11 -13 0 -11 654 -1779 708 -1913 12 -29 20 -54 19 -56 -1 -2 10 10 25 27 15 16 32 42 39 58 6 15 18 27 26 27 9 0 13 6 9 15 -3 8 -1 15 4 15 6 0 10 15 10 34 0 28 -4 35 -22 39 l-23 4 23 2 c18 1 22 7 22 33 0 28 6 22 65 -68 36 -54 68 -109 71 -121 4 -14 14 -23 25 -23 22 0 26 38 8 89 -12 33 -108 185 -217 341 -63 90 -105 167 -116 214 -4 15 -16 47 -26 70 -17 36 -144 377 -390 1046 -39 107 -76 207 -82 223 -13 33 -39 34 -143 7z"/><path id="pcqyK1wg1" d="M2000 3496 c0 -10 -21 -16 -72 -20 -68 -6 -234 -17 -268 -17 -8 0 -85 -5 -170 -10 -85 -5 -193 -12 -240 -14 -47 -3 -125 -7 -175 -10 -49 -4 -97 -6 -105 -6 -8 0 -87 -5 -175 -10 -88 -5 -197 -12 -242 -14 -45 -3 -86 -5 -90 -6 -4 -1 -36 -1 -70 0 -52 1 -63 4 -68 21 -5 15 -15 20 -41 20 -22 0 -34 5 -34 14 0 9 -8 12 -25 9 -24 -5 -24 -6 -7 -29 10 -13 24 -21 33 -18 22 6 38 -15 59 -83 10 -32 19 -50 19 -40 1 12 10 17 34 17 32 0 780 43 1322 76 154 10 299 17 323 17 47 0 48 3 31 73 -7 25 -17 44 -25 44 -8 0 -14 -6 -14 -14z"/><path id="pJ05vT2f7" d="M2490 3131 c0 -16 4 -31 9 -33 4 -1 10 -22 14 -45 5 -42 4 -43 -24 -43 -22 0 -29 -5 -29 -20 0 -19 4 -20 53 -14 28 4 53 8 55 9 2 2 -9 42 -24 89 -27 88 -54 116 -54 57z"/><path id="pSt69qWf9" d="M2220 3040 c0 -21 10 -24 48 -14 36 10 27 34 -13 34 -28 0 -35 -4 -35 -20z"/><path id="pyhczVioD" d="M1595 2860 c-242 -34 -475 -73 -475 -81 0 -9 237 -2 355 12 50 6 136 11 192 12 l103 2 10 29 c5 16 10 33 10 37 0 12 -44 10 -195 -11z"/><path id="puHv4O17P" d="M1693 2703 c-7 -2 -13 -11 -13 -19 0 -10 12 -14 40 -14 33 0 40 3 40 20 0 15 -6 20 -27 19 -16 0 -34 -3 -40 -6z"/><path id="pAq3aPJfF" d="M1730 2505 c0 -33 2 -35 35 -35 39 0 50 24 15 33 -11 3 -20 12 -20 21 0 9 -7 16 -15 16 -10 0 -15 -11 -15 -35z"/></g></g><g id="l28k0ftGzJ7Efo3Ti4MC2hc" fill="rgb(13,133,134)" style="transform: none;"><g style="transform: none;"><path id="pzjuCG78I" d="M2518 4943 c-22 -6 -22 -6 2 -73 200 -550 665 -1788 671 -1784 4 2 5 -4 2 -14 -2 -11 3 -27 13 -36 15 -15 15 -19 3 -28 -10 -7 -7 -8 11 -4 14 3 30 6 37 6 8 0 13 22 15 61 l3 61 43 -62 c23 -34 42 -65 42 -70 0 -4 7 -13 15 -20 8 -7 13 -15 11 -19 -2 -3 6 -21 19 -39 l23 -33 11 33 c9 26 8 42 -1 69 -13 35 -153 253 -180 279 -8 8 -20 24 -27 35 -10 17 -11 9 -6 -45 6 -61 5 -63 -9 -40 -8 14 -24 45 -36 70 -23 48 -25 53 -375 1000 -125 338 -234 622 -241 631 -8 9 -11 19 -7 22 7 8 -11 7 -39 0z m46 -143 c5 -20 3 -19 -8 5 -7 17 -16 41 -20 55 -5 20 -3 19 8 -5 7 -16 16 -41 20 -55z m30 -80 c5 -17 4 -20 -2 -10 -5 8 -13 26 -16 40 -5 17 -4 20 2 10 5 -8 13 -26 16 -40z m30 -80 c5 -17 4 -20 -2 -10 -5 8 -13 26 -16 40 -5 17 -4 20 2 10 5 -8 13 -26 16 -40z m46 -119 c17 -46 29 -86 27 -88 -2 -2 -17 32 -32 74 -38 105 -39 109 -32 103 3 -3 20 -43 37 -89z m54 -151 c5 -17 4 -20 -2 -10 -5 8 -13 26 -16 40 -5 17 -4 20 2 10 5 -8 13 -26 16 -40z m30 -80 c5 -17 4 -20 -2 -10 -5 8 -13 26 -16 40 -5 17 -4 20 2 10 5 -8 13 -26 16 -40z m40 -110 c5 -20 3 -19 -8 5 -7 17 -16 41 -20 55 -5 20 -3 19 8 -5 7 -16 16 -41 20 -55z m30 -80 c5 -17 4 -20 -2 -10 -5 8 -13 26 -16 40 -5 17 -4 20 2 10 5 -8 13 -26 16 -40z m30 -80 c5 -17 4 -20 -2 -10 -5 8 -13 26 -16 40 -5 17 -4 20 2 10 5 -8 13 -26 16 -40z m30 -80 c5 -17 4 -20 -2 -10 -5 8 -13 26 -16 40 -5 17 -4 20 2 10 5 -8 13 -26 16 -40z m30 -80 c5 -17 4 -20 -2 -10 -5 8 -13 26 -16 40 -5 17 -4 20 2 10 5 -8 13 -26 16 -40z m40 -110 c5 -17 4 -20 -2 -10 -5 8 -13 26 -16 40 -5 17 -4 20 2 10 5 -8 13 -26 16 -40z m30 -80 c5 -17 4 -20 -2 -10 -5 8 -13 26 -16 40 -5 17 -4 20 2 10 5 -8 13 -26 16 -40z m30 -80 c5 -17 4 -20 -2 -10 -5 8 -13 26 -16 40 -5 17 -4 20 2 10 5 -8 13 -26 16 -40z m40 -110 c5 -20 3 -19 -8 5 -7 17 -16 41 -20 55 -5 20 -3 19 8 -5 7 -16 16 -41 20 -55z m30 -80 c5 -17 4 -20 -2 -10 -5 8 -13 26 -16 40 -5 17 -4 20 2 10 5 -8 13 -26 16 -40z m30 -80 c5 -17 4 -20 -2 -10 -5 8 -13 26 -16 40 -5 17 -4 20 2 10 5 -8 13 -26 16 -40z m30 -80 c5 -17 4 -20 -2 -10 -5 8 -13 26 -16 40 -5 17 -4 20 2 10 5 -8 13 -26 16 -40z"/><path id="pCtTkOyL8" d="M1715 3503 c-197 -4 -611 -23 -755 -33 -261 -20 -635 -38 -665 -33 -16 3 -32 10 -35 14 -3 5 -19 4 -35 0 -17 -5 -25 -10 -18 -10 6 -1 15 -10 18 -22 4 -12 12 -18 21 -15 24 9 43 -5 55 -42 10 -31 13 -33 24 -19 8 12 15 13 23 5 6 -6 19 -7 29 -3 10 4 50 9 88 11 39 1 113 5 165 9 118 7 296 17 520 30 91 5 151 8 340 20 47 3 126 7 175 10 50 3 133 8 185 11 52 3 117 6 143 5 46 0 49 2 43 22 -3 12 -6 28 -6 35 0 9 -25 11 -97 10 -54 -1 -152 -3 -218 -5z"/><path id="p9yJTlyPt" d="M2500 3095 c0 -28 4 -35 20 -35 21 0 24 10 14 48 -10 36 -34 27 -34 -13z"/><path id="p1B8ZUzswm" d="M2210 3040 c0 -21 10 -24 48 -14 36 10 27 34 -13 34 -28 0 -35 -4 -35 -20z"/><path id="pOXzw8mDd" d="M2130 3025 c0 -14 -4 -25 -10 -25 -5 0 -10 -10 -10 -22 0 -23 0 -23 13 2 7 14 26 28 45 34 44 12 42 36 -3 36 -31 0 -35 -3 -35 -25z"/><path id="p198T8ie75" d="M2350 3042 c0 -4 9 -13 20 -20 11 -7 20 -21 20 -31 0 -26 15 -34 50 -26 33 7 41 35 10 35 -13 0 -22 9 -26 25 -5 21 -12 25 -40 25 -19 0 -34 -3 -34 -8z"/><path id="p1Hqsd9HU" d="M2530 3010 c0 -19 5 -30 14 -30 22 0 28 17 16 40 -16 29 -30 25 -30 -10z"/><path id="pQdK4F1dM" d="M1670 2860 c-24 -8 -24 -8 5 -8 17 0 41 4 55 8 24 8 24 8 -5 8 -16 0 -41 -4 -55 -8z"/><path id="pxjhoBKQ5" d="M1720 2596 l0 -116 35 0 c19 0 35 5 35 10 0 6 -7 10 -15 10 -11 0 -15 20 -17 102 -3 89 -5 103 -20 106 -16 3 -18 -7 -18 -112z"/></g></g><g id="l19IddIfT4lm6kQQfDhDNrh" fill="rgb(10,125,127)" style="transform: none;"><g style="transform: none;"><path id="p1DcmPRqxo" d="M1847 3499 c8 -8 16 -8 30 0 16 9 14 10 -11 11 -22 0 -27 -3 -19 -11z"/><path id="pKf8gOEWZ" d="M1447 3489 c-12 -7 -37 -8 -64 -4 -63 9 -1032 -14 -1117 -27 -52 -8 -65 -13 -53 -20 10 -5 17 -16 17 -24 0 -10 7 -13 24 -8 17 4 27 0 35 -13 6 -10 11 -12 11 -5 0 8 13 13 37 12 21 0 137 6 258 14 121 8 274 17 340 19 66 3 128 8 138 12 10 4 52 5 93 2 44 -3 72 -2 69 4 -7 10 -7 10 165 14 217 4 329 28 157 32 -53 2 -100 -2 -110 -8z"/><path id="pKGWez9aR" d="M3235 3135 c0 -112 2 -125 18 -125 11 0 17 8 17 24 0 49 33 33 34 -17 1 -10 18 -27 41 -40 22 -12 49 -37 62 -56 l22 -33 7 27 c7 27 -4 55 -44 117 -22 36 -154 228 -156 228 0 0 -1 -56 -1 -125z"/><path id="pd4n9M0u9" d="M2148 3153 c-33 -8 -20 -33 17 -33 28 0 35 4 35 20 0 20 -14 23 -52 13z"/><path id="pVEso2S5a" d="M2508 3053 c-3 -35 -6 -38 -36 -41 -31 -3 -62 15 -62 36 0 12 -35 22 -77 22 -26 0 -33 -4 -33 -20 0 -16 7 -20 33 -20 41 0 54 -9 62 -43 6 -23 12 -27 29 -23 11 2 44 7 71 11 78 10 75 8 57 64 -19 60 -40 67 -44 14z"/><path id="pHdwiYEIH" d="M2190 3040 c0 -21 16 -25 58 -14 39 11 27 34 -18 34 -33 0 -40 -3 -40 -20z"/><path id="pWPgzra0P" d="M2110 2999 l0 -32 20 26 c11 14 20 28 20 31 0 3 -9 6 -20 6 -16 0 -20 -7 -20 -31z"/><path id="pyx96lv9B" d="M1413 2186 c3 -8 -5 -18 -19 -25 -35 -16 -30 -31 11 -31 33 0 35 2 35 35 0 25 -4 35 -16 35 -10 0 -14 -6 -11 -14z"/><path id="pLoanPf52" d="M2090 496 c0 -25 17 -36 56 -36 15 0 24 -6 24 -15 0 -10 11 -15 35 -15 19 0 35 4 35 8 0 9 -77 54 -123 71 -25 10 -27 8 -27 -13z"/></g></g><g id="l5UZZoiMGdpOGueMfLsCI32" fill="rgb(11,112,113)" style="transform: none;"><g style="transform: none;"><path id="pIwRHKeaV" d="M3243 3110 l-1 -99 49 -11 c56 -14 93 -40 120 -84 10 -17 19 -26 19 -20 0 17 -41 89 -116 205 l-69 107 -2 -98z"/><path id="pFDd0ib6P" d="M2158 3153 c-10 -2 -18 -11 -18 -19 0 -11 17 -14 75 -14 68 0 75 2 75 20 0 18 -6 20 -57 19 -32 -1 -66 -3 -75 -6z"/><path id="pYijq9qS4" d="M2490 3135 c0 -20 -6 -25 -32 -29 -18 -3 -49 -8 -68 -12 -19 -4 -95 -8 -167 -11 -144 -4 -146 -6 -119 -59 8 -15 12 -32 9 -37 -3 -5 7 0 23 11 21 16 53 24 119 30 98 10 130 4 140 -27 3 -11 14 -22 23 -25 16 -5 130 9 139 17 9 10 -41 167 -54 167 -7 0 -13 -11 -13 -25z"/><path id="p12FjtjMTr" d="M1698 2703 c-33 -8 -20 -33 17 -33 28 0 35 4 35 20 0 20 -14 23 -52 13z"/><path id="pbLicgNdt" d="M2800 2640 c0 -16 7 -20 35 -20 40 0 49 24 13 34 -38 10 -48 7 -48 -14z"/><path id="p2uRrNGbg" d="M2200 2444 c0 -21 5 -24 35 -24 22 0 35 5 35 13 0 8 -16 18 -35 24 -33 11 -35 10 -35 -13z"/><path id="p1CDbGEvWy" d="M3430 2440 c0 -23 0 -23 -34 -10 -24 9 -26 7 -26 -15 0 -22 4 -25 35 -25 33 0 35 2 35 35 0 19 -2 35 -5 35 -3 0 -5 -9 -5 -20z"/><path id="p10pjB3Fog" d="M1383 2155 c-43 -18 -42 -35 2 -35 31 0 35 3 35 25 0 14 -1 25 -2 25 -2 -1 -18 -7 -35 -15z"/><path id="pfb0JVARU" d="M1178 2083 c-33 -8 -20 -33 17 -33 28 0 35 4 35 20 0 20 -14 23 -52 13z"/><path id="p15Zq7ip77" d="M1022 2033 c5 -26 38 -29 38 -4 0 15 -6 21 -21 21 -14 0 -19 -5 -17 -17z"/><path id="p11UvjmQAR" d="M2050 1110 l0 -30 35 22 c44 29 44 38 0 38 -32 0 -35 -2 -35 -30z"/><path id="p5iNhHk4p" d="M2260 1134 c0 -12 34 -33 53 -34 10 0 17 7 17 20 0 16 -7 20 -35 20 -19 0 -35 -3 -35 -6z"/><path id="p1AqYVhTgE" d="M2450 1128 c0 -10 17 -20 46 -27 54 -14 135 -53 152 -74 15 -18 52 -11 52 9 0 9 -12 14 -35 14 -30 0 -35 3 -35 24 0 24 -16 36 -50 36 -10 0 -20 5 -22 10 -2 6 -27 13 -56 17 -43 5 -52 3 -52 -9z"/><path id="p1FagjFU17" d="M1970 1035 c0 -15 6 -25 14 -25 7 0 21 11 30 25 16 25 16 25 -14 25 -25 0 -30 -4 -30 -25z"/><path id="p1AppVRymp" d="M2050 501 c0 -24 7 -34 30 -46 31 -16 140 -21 140 -6 0 9 -102 61 -147 75 -20 7 -23 4 -23 -23z"/></g></g><g id="lwwueWPytne9W4b8EXChtf" fill="rgb(6,93,94)" style="transform: none;"><g style="transform: none;"><path id="p7SZWeF4T" d="M2177 3153 l-88 -4 3 -52 3 -52 138 2 c75 1 145 7 155 12 10 5 46 11 80 13 65 3 66 4 56 57 l-6 31 -127 -2 c-69 -1 -166 -4 -214 -5z"/><path id="pEyggwDhF" d="M3250 3098 c0 -7 -3 -30 -6 -50 -6 -33 -4 -38 12 -38 11 -1 37 -7 59 -15 31 -11 36 -11 23 -1 -10 7 -18 16 -18 20 0 3 -16 26 -35 52 -19 25 -35 40 -35 32z"/><path id="pLFVc8kpn" d="M1708 2703 c-31 -8 -21 -33 12 -33 23 0 30 4 30 20 0 20 -8 22 -42 13z"/><path id="p18LtlVT4T" d="M2538 2653 c-33 -8 -20 -33 17 -33 28 0 35 4 35 20 0 20 -14 23 -52 13z"/><path id="p1MQRqwbz" d="M2790 2640 c0 -16 7 -20 35 -20 40 0 49 24 13 34 -38 10 -48 7 -48 -14z"/><path id="pPNqSct5a" d="M2890 2631 c0 -15 6 -21 24 -21 13 0 38 -3 55 -6 27 -6 31 -4 31 15 0 15 -6 21 -24 21 -13 0 -38 3 -55 6 -27 6 -31 4 -31 -15z"/><path id="pmgJipHpt" d="M2429 2624 c-9 -11 -21 -34 -27 -51 -10 -31 -10 -33 13 -33 19 0 25 7 30 34 4 19 5 42 3 51 -3 16 -4 16 -19 -1z"/><path id="p1Aqs6FLkc" d="M3040 2501 c0 -11 -4 -21 -9 -21 -13 0 -18 -36 -51 -403 -33 -357 -37 -466 -18 -485 7 -7 35 -12 64 -12 65 0 96 23 119 87 16 48 74 608 75 724 l0 56 43 -11 c23 -6 45 -15 48 -19 4 -5 28 -12 54 -15 37 -4 47 -2 43 9 -8 25 -204 91 -312 104 -53 7 -56 6 -56 -14z"/><path id="pA0VvcyFP" d="M2288 2453 c-33 -8 -20 -33 17 -33 28 0 35 4 35 20 0 20 -14 23 -52 13z"/><path id="poCPWMgnD" d="M1320 2128 c-41 -16 -123 -43 -183 -58 -59 -15 -110 -29 -113 -32 -3 -3 78 -136 179 -294 101 -159 195 -308 208 -331 18 -32 32 -44 56 -49 63 -12 68 -6 68 76 0 83 -1 85 -199 455 l-85 160 24 9 c14 6 25 13 25 18 0 4 11 8 25 8 14 0 25 5 25 10 0 6 11 10 25 10 20 0 25 5 25 25 0 14 -1 25 -2 24 -2 0 -37 -14 -78 -31z"/><path id="p5SXsdM6J" d="M2133 1173 c-16 -3 -23 -11 -23 -28 0 -22 3 -24 26 -15 38 15 91 12 127 -7 25 -13 53 -16 123 -14 101 3 179 -18 239 -64 19 -14 41 -25 49 -25 24 0 20 41 -4 47 -11 3 -20 9 -20 14 0 5 -13 9 -30 9 -20 0 -30 5 -30 15 0 10 -10 15 -29 15 -16 0 -31 5 -33 12 -3 9 -38 12 -116 13 -62 0 -112 3 -112 8 0 4 -13 7 -30 7 -16 0 -30 5 -30 10 0 10 -63 12 -107 3z"/><path id="pgMSFtyBc" d="M2007 1103 c-4 -3 -7 -17 -7 -30 0 -16 -6 -23 -20 -23 -13 0 -20 -7 -20 -20 0 -34 32 -21 79 31 l44 49 -35 0 c-19 0 -38 -3 -41 -7z"/><path id="ppL4zla7d" d="M1940 541 c0 -13 9 -21 29 -26 16 -3 37 -17 45 -31 24 -36 92 -66 163 -72 44 -3 63 -9 63 -18 0 -8 9 -14 20 -14 11 0 20 -4 20 -10 0 -5 16 -10 35 -10 30 0 35 3 35 24 0 19 -4 22 -25 18 -17 -3 -36 4 -58 20 -48 37 -94 59 -110 52 -18 -7 -80 23 -72 36 5 8 -105 50 -132 50 -7 0 -13 -9 -13 -19z"/></g></g><g id="l2bLyrLKRdM2DIjPUdvDoDv" fill="rgb(5,74,74)" style="transform: none;"><g style="transform: none;"><path id="p9RLDUSPj" d="M2433 3153 c9 -2 25 -2 35 0 9 3 1 5 -18 5 -19 0 -27 -2 -17 -5z"/><path id="psmQxJg5J" d="M2147 3143 c18 -2 50 -2 70 0 21 2 7 4 -32 4 -38 0 -55 -2 -38 -4z"/><path id="p11UcgZcs4" d="M2548 2653 c-33 -8 -20 -33 17 -33 28 0 35 4 35 20 0 20 -14 23 -52 13z"/><path id="p1DYj6YTQd" d="M2770 2640 c0 -17 7 -20 40 -20 45 0 57 23 18 34 -42 11 -58 7 -58 -14z"/><path id="p9OxK9Gpu" d="M2435 2630 c-18 -20 -17 -20 18 -20 30 0 37 4 37 20 0 13 -7 20 -18 20 -11 0 -27 -9 -37 -20z"/><path id="pwqTZoQrK" d="M2383 2523 c-25 -51 -33 -59 -65 -66 -49 -12 -51 -37 -3 -37 28 0 35 4 35 20 0 16 7 20 30 20 25 0 30 4 30 25 0 14 5 25 10 25 6 0 10 16 10 35 0 50 -15 43 -47 -22z"/><path id="pdheJGvMV" d="M2955 2538 c-3 -18 -14 -112 -24 -208 l-19 -175 -1 138 -1 137 -34 17 c-33 15 -60 14 -553 -35 -285 -27 -536 -48 -559 -45 l-41 5 -6 -54 c-4 -29 -7 -92 -7 -139 0 -76 -24 -246 -36 -258 -8 -8 -33 34 -100 172 -66 132 -69 137 -99 137 -40 0 -70 -22 -62 -44 7 -19 -45 -46 -178 -92 -38 -14 -60 -23 -48 -20 16 3 20 0 16 -11 -3 -8 -2 -18 4 -22 10 -6 200 -360 261 -486 35 -71 52 -148 35 -158 -5 -3 -28 3 -51 13 -23 11 -42 16 -42 13 0 -3 32 -62 71 -130 110 -192 147 -220 339 -259 157 -32 158 -32 208 21 78 84 161 108 237 69 33 -16 49 -19 90 -12 89 13 207 -17 286 -73 29 -20 34 -21 92 -9 136 28 306 83 377 121 169 91 224 185 310 528 30 121 144 632 165 742 3 17 -3 19 -53 19 -31 0 -67 3 -79 6 -17 5 -23 2 -23 -10 0 -9 -3 -16 -7 -16 -3 0 -65 20 -137 44 -86 29 -158 47 -208 52 -74 6 -78 8 -78 30 0 39 -38 32 -45 -8z m222 -52 c23 -23 -30 -697 -62 -789 -25 -71 -88 -110 -123 -75 -17 17 -15 59 18 425 33 367 38 403 51 403 5 0 9 8 9 18 0 10 3 22 8 26 7 8 91 0 99 -8z"/><path id="p14wcB6P2j" d="M2140 2481 c0 -11 12 -29 26 -40 32 -25 94 -29 94 -6 0 8 -6 15 -14 15 -8 0 -28 11 -44 25 -36 30 -62 32 -62 6z"/><path id="pPrum543k" d="M1372 2245 c29 -44 38 -44 38 0 0 32 -2 35 -30 35 l-30 0 22 -35z"/><path id="pNi7Lnywf" d="M1035 2040 c-4 -6 -1 -18 7 -27 7 -9 12 -19 11 -22 -2 -10 31 -61 40 -61 4 0 5 -5 1 -12 -5 -7 -2 -9 9 -5 11 4 15 1 12 -13 -2 -12 3 -21 16 -25 11 -4 17 -11 14 -16 -4 -5 1 -9 9 -9 18 0 15 11 -33 109 -17 35 -28 67 -26 71 5 9 -18 20 -40 20 -8 0 -17 -5 -20 -10z"/><path id="p16rsfjK8I" d="M1990 523 c0 -63 113 -123 233 -123 53 0 58 2 46 16 -20 24 -65 44 -75 34 -21 -21 -152 41 -147 68 1 5 -11 15 -27 21 -28 9 -30 8 -30 -16z"/><path id="paXbR96fD" d="M2413 543 c-19 -7 -17 -63 2 -63 9 0 15 -9 15 -25 0 -21 5 -25 30 -25 34 0 42 25 11 35 -11 3 -26 23 -33 44 -8 22 -18 36 -25 34z"/></g></g><g id="l2LMAKnq3uBj0y79ZoaWbEa" fill="rgb(6,66,63)" style="transform: none;"><g style="transform: none;"><path id="pXkRrYooJ" d="M1680 2680 c0 -13 7 -20 20 -20 13 0 20 7 20 20 0 13 -7 20 -20 20 -13 0 -20 -7 -20 -20z"/><path id="pZZRgVtb8" d="M2558 2653 c-33 -8 -20 -33 17 -33 28 0 35 4 35 20 0 20 -14 23 -52 13z"/><path id="pBh2Vs5Ts" d="M2750 2640 c0 -17 7 -20 40 -20 45 0 57 23 18 34 -42 11 -58 7 -58 -14z"/><path id="p91I09KjV" d="M2448 2639 c-29 -16 -21 -29 17 -29 28 0 35 4 35 20 0 22 -24 26 -52 9z"/><path id="pxgHxj1i1" d="M2870 2631 c0 -16 6 -21 28 -21 15 0 44 -3 65 -6 30 -5 37 -3 37 9 0 21 -5 23 -72 31 -54 7 -58 6 -58 -13z"/><path id="p13jdplgBX" d="M2956 2558 c-3 -13 -6 -33 -6 -45 0 -13 -4 -23 -10 -23 -5 0 -10 5 -10 10 0 6 -11 22 -25 35 -30 31 -68 32 -279 10 -81 -9 -155 -14 -164 -11 -9 2 -27 7 -39 11 -19 5 -25 0 -40 -32 -22 -46 -53 -63 -115 -63 -35 0 -54 6 -76 25 -28 23 -37 25 -143 25 -63 0 -132 -5 -154 -11 -79 -21 -105 -23 -105 -5 0 9 -7 16 -16 16 -9 0 -18 9 -21 20 -9 35 -33 24 -33 -15 0 -19 4 -35 10 -35 6 0 6 -9 0 -26 -6 -15 -13 -66 -17 -115 -5 -76 -4 -89 9 -89 17 0 28 29 28 74 0 21 3 26 13 19 8 -7 183 7 536 43 473 47 527 51 553 38 l28 -15 2 -137 c3 -243 5 -297 12 -345 7 -45 26 -76 26 -41 0 49 61 614 70 645 14 51 13 59 -9 59 -11 0 -21 -9 -25 -22z"/><path id="p19jCIVCmk" d="M3488 2443 c-32 -3 -48 -9 -48 -17 0 -19 42 -28 99 -20 37 5 48 10 47 23 -3 17 -22 20 -98 14z"/><path id="pzFeiReZQ" d="M1362 2291 c-10 -6 -6 -19 19 -57 45 -68 44 -68 71 -50 l24 16 63 -128 c34 -71 71 -142 82 -158 13 -20 19 -47 19 -87 0 -68 12 -68 42 2 19 44 58 206 58 244 0 10 -8 17 -19 17 -15 0 -20 -11 -26 -62 l-8 -63 -7 52 c-5 30 -27 89 -54 142 -25 49 -46 97 -46 105 0 26 -56 19 -102 -11 -29 -19 -43 -24 -46 -15 -2 6 -12 12 -23 12 -14 0 -19 7 -19 25 0 26 -6 30 -28 16z"/><path id="pmEH1zANY" d="M1870 566 c0 -19 8 -26 46 -36 31 -9 49 -21 56 -36 23 -49 141 -104 224 -104 27 0 52 -6 60 -15 9 -8 31 -15 50 -15 28 0 34 4 34 21 0 12 -5 19 -12 16 -7 -3 -32 6 -55 19 -23 13 -48 21 -57 18 -8 -3 -41 2 -73 11 -42 12 -68 28 -96 57 -27 28 -57 46 -107 63 l-70 24 0 -23z"/><path id="peP4rpv9I" d="M2396 527 c-31 -31 -33 -47 -6 -47 11 0 20 -7 20 -15 0 -11 11 -15 37 -15 32 0 35 2 20 13 -10 7 -24 30 -31 51 l-14 39 -26 -26z"/></g></g><g id="l48SKrErIeF87flmFRjLGwE" fill="rgb(5,57,52)" style="transform: none;"><g style="transform: none;"><path id="pvGNAJ1It" d="M1718 2703 c-28 -7 -22 -33 7 -33 18 0 25 5 25 20 0 20 -2 21 -32 13z"/><path id="poFMgYiE8" d="M2518 2650 c-37 -3 -73 -12 -82 -19 -8 -7 -23 -38 -34 -69 l-19 -57 61 -3 c33 -2 132 4 219 13 87 9 170 14 183 11 31 -8 61 -56 69 -110 10 -61 15 -77 26 -71 5 4 10 -9 10 -27 1 -18 7 14 15 72 7 58 18 121 23 141 18 62 14 98 -11 104 -91 21 -329 29 -460 15z"/><path id="pnas4476l" d="M1732 2480 c-7 -30 -16 -83 -19 -117 -5 -54 -3 -63 10 -63 11 0 18 12 22 38 15 93 16 95 66 97 41 2 84 12 145 35 12 5 64 10 117 11 71 2 100 -1 114 -11 16 -13 16 -13 -1 8 -19 21 -24 22 -227 22 -190 0 -208 2 -211 18 -2 9 -9 -8 -16 -38z"/><path id="pm7fsAVst" d="M3430 2430 c0 -13 7 -20 20 -20 13 0 20 7 20 20 0 13 -7 20 -20 20 -13 0 -20 -7 -20 -20z"/><path id="pipm2vKzD" d="M3510 2430 c0 -22 28 -27 61 -9 27 14 14 29 -27 29 -27 0 -34 -4 -34 -20z"/><path id="p1dwiMi18" d="M1520 2290 c-19 -21 -40 -39 -47 -39 -6 -1 -18 -7 -25 -14 -7 -7 -21 -16 -31 -20 -15 -5 -16 -10 -7 -27 l11 -21 37 22 c20 13 51 32 67 43 17 11 27 16 23 11 -4 -4 12 -47 37 -94 64 -124 66 -133 66 -260 l1 -116 19 38 c25 47 54 161 64 245 7 58 6 62 -13 62 -17 0 -22 -8 -25 -42 -2 -24 -4 -1 -5 50 -1 53 -6 92 -12 92 -5 0 -10 -4 -10 -10 0 -5 -4 -10 -8 -10 -5 0 -17 28 -28 63 -18 57 -23 62 -50 64 -22 1 -37 -8 -64 -37z"/><path id="p19DvparI2" d="M1940 536 c0 -14 4 -26 9 -26 5 0 12 -8 16 -19 15 -48 142 -104 263 -116 59 -6 72 -4 72 7 0 21 -37 36 -101 41 -83 8 -169 53 -204 109 -5 9 -20 19 -32 23 -20 5 -23 3 -23 -19z"/><path id="p1ANc4Qocf" d="M2366 478 c-10 -38 -7 -48 14 -48 16 0 20 7 20 35 0 40 -24 49 -34 13z"/></g></g><g id="l6rV8a23HbahPbcSDYOViMF" fill="rgb(7,48,36)" style="transform: none;"><g style="transform: none;"><path id="p190CzVOs6" d="M1685 2688 c-2 -7 -8 -157 -14 -333 -6 -176 -14 -376 -16 -445 l-6 -125 21 37 c39 72 60 192 69 393 6 124 14 205 24 233 13 37 13 44 1 49 -11 4 -14 28 -14 104 l0 99 -30 0 c-17 0 -32 -6 -35 -12z"/><path id="p1BioijnDA" d="M2931 2627 c-8 -11 -5 -13 19 -9 17 2 30 8 30 13 0 14 -36 11 -49 -4z"/><path id="pRr9AtkLo" d="M2985 2609 c-5 -16 -9 -18 -15 -9 -5 9 -17 10 -36 5 -21 -6 -24 -9 -11 -12 9 -3 17 -14 17 -26 0 -12 4 -28 9 -35 7 -11 9 -11 14 2 4 9 13 16 22 16 11 0 15 11 15 40 0 44 -5 51 -15 19z"/><path id="pMh2O9Vn9" d="M3430 2480 c0 -13 7 -20 20 -20 24 0 27 25 4 34 -23 9 -24 8 -24 -14z"/><path id="p14MAYNkRK" d="M3500 2466 c0 -12 -10 -16 -36 -16 -28 0 -35 -3 -32 -17 3 -15 14 -18 71 -17 78 1 102 14 66 37 -40 25 -69 31 -69 13z"/><path id="pvi3YhkIm" d="M1525 2306 c-53 -54 -84 -76 -110 -76 -23 0 -24 -2 -13 -25 6 -14 16 -25 22 -25 18 0 134 79 150 102 8 11 19 17 25 14 13 -9 22 8 15 28 -10 26 -56 17 -89 -18z"/><path id="p123bpsJJV" d="M1814 691 c-40 -25 -51 -41 -26 -41 10 0 28 14 40 30 27 35 26 36 -14 11z"/><path id="p1J8jlNWW" d="M1820 586 c0 -16 7 -27 20 -31 11 -3 20 -10 20 -15 0 -4 19 -28 43 -53 74 -79 208 -137 348 -152 108 -11 161 24 147 98 -5 23 12 47 33 47 7 0 9 9 4 27 -8 34 -9 35 -27 28 -17 -7 -31 -33 -48 -88 -13 -42 -41 -62 -67 -49 -10 5 -37 10 -61 11 -88 5 -224 69 -237 111 -3 9 -15 22 -28 28 -36 17 -139 62 -143 62 -2 0 -4 -11 -4 -24z"/><path id="pxyJzGHWd" d="M2450 444 c0 -17 6 -24 20 -24 13 0 20 7 20 19 0 10 -9 21 -20 24 -16 4 -20 0 -20 -19z"/><path id="pnFRgWiez" d="M1760 394 c0 -12 34 -64 42 -64 4 0 8 16 8 35 0 31 -3 35 -25 35 -14 0 -25 -3 -25 -6z"/><path id="pDuajIFvX" d="M1970 169 c0 -11 60 -39 85 -39 24 0 18 37 -7 44 -36 9 -78 7 -78 -5z"/></g></g><g id="l1AuWQz112oK0g8QQNJuMl9" fill="rgb(7,38,22)" style="transform: none;"><g style="transform: none;"><path id="pcPqVmNon" d="M3436 2492 c-3 -3 -6 -20 -6 -39 0 -32 1 -33 44 -33 58 0 76 8 76 33 0 11 -3 17 -7 14 -3 -4 -11 -3 -17 2 -16 13 -84 30 -90 23z"/><path id="p19PXnmM4" d="M1452 2320 c-107 -28 -107 -28 -72 -80 16 -24 38 -45 49 -47 34 -5 171 108 171 142 0 11 -78 3 -148 -15z"/><path id="pZode3v6i" d="M1760 633 c-26 -40 -30 -57 -30 -114 0 -55 5 -77 29 -122 111 -211 201 -271 407 -272 105 0 113 1 153 28 24 16 50 41 59 56 8 15 25 32 36 37 27 12 51 64 65 139 11 58 10 61 -13 78 -14 10 -28 31 -31 48 -4 16 -12 28 -18 26 -23 -7 -50 -57 -53 -98 -3 -43 -12 -59 -35 -62 -8 -2 -18 -5 -24 -9 -13 -8 -104 7 -169 28 -102 33 -226 118 -226 156 0 4 -19 20 -42 34 -52 33 -60 43 -53 72 10 40 -24 25 -55 -25z"/></g></g></svg>