<svg id="visual" viewBox="0 0 500 50" width="500" height="50" xmlns="http://www.w3.org/2000/svg" xmlns:xlink="http://www.w3.org/1999/xlink" version="1.1"><path d="M0 13L16 13L16 31L32 31L32 27L48 27L48 14L65 14L65 23L81 23L81 32L97 32L97 14L113 14L113 21L129 21L129 22L145 22L145 12L161 12L161 10L177 10L177 16L194 16L194 30L210 30L210 23L226 23L226 23L242 23L242 27L258 27L258 14L274 14L274 18L290 18L290 14L306 14L306 13L323 13L323 19L339 19L339 26L355 26L355 20L371 20L371 15L387 15L387 29L403 29L403 12L419 12L419 26L435 26L435 28L452 28L452 15L468 15L468 22L484 22L484 29L500 29L500 18L500 0L500 0L484 0L484 0L468 0L468 0L452 0L452 0L435 0L435 0L419 0L419 0L403 0L403 0L387 0L387 0L371 0L371 0L355 0L355 0L339 0L339 0L323 0L323 0L306 0L306 0L290 0L290 0L274 0L274 0L258 0L258 0L242 0L242 0L226 0L226 0L210 0L210 0L194 0L194 0L177 0L177 0L161 0L161 0L145 0L145 0L129 0L129 0L113 0L113 0L97 0L97 0L81 0L81 0L65 0L65 0L48 0L48 0L32 0L32 0L16 0L16 0L0 0Z" fill="#ffffff" stroke-linecap="square" stroke-linejoin="miter"></path></svg>