<svg xmlns="http://www.w3.org/2000/svg" class="img-fluid" id="outputsvg" style="transform: matrix(1.01591, 0, 0, 1.01591, -3.04775, 29.4614); transform-origin: 50% 50%; cursor: move; max-height: 357.22px; transition: none 0s ease 0s;" width="1800" height="800" viewBox="0 0 18000 8000"><g id="l3enja737EotJAxu3egayw8" fill="rgb(81,87,72)" style="transform: none;"><g style="transform: none;"><path id="p6GtNQ5DL" d="M13337 6078 c-13 -13 -94 -106 -179 -208 -85 -102 -237 -284 -338 -405 -328 -392 -324 -387 -320 -349 4 38 0 54 -15 54 -12 0 -15 -13 -15 -55 l0 -55 38 0 c34 0 42 7 95 70 31 38 57 72 57 76 0 3 11 15 25 26 14 11 25 24 25 30 0 5 11 19 25 30 14 11 25 24 25 30 0 5 11 19 25 30 14 11 25 24 25 29 0 6 14 22 30 36 17 13 30 28 30 32 0 4 22 32 50 62 27 30 50 58 50 63 0 4 11 17 25 28 14 11 25 24 25 30 0 5 11 19 25 30 14 11 25 24 25 29 0 6 14 22 30 36 17 13 30 28 30 32 0 4 22 32 50 62 27 30 50 58 50 63 0 4 11 17 25 28 14 11 25 24 25 30 0 5 11 19 25 30 14 11 25 24 25 29 0 11 51 58 63 59 4 0 7 -207 7 -460 0 -454 0 -460 20 -460 20 0 20 5 18 478 l-3 477 -36 3 c-27 2 -43 -3 -62 -20z"/><path id="pFjBPJDcr" d="M4204 6066 c-3 -8 -4 -25 -2 -38 2 -18 13 -25 53 -35 29 -7 61 -24 78 -41 25 -25 30 -42 43 -133 14 -99 20 -160 44 -484 12 -167 17 -195 36 -195 19 0 18 11 -11 375 -27 334 -38 418 -61 452 -20 31 -59 55 -102 64 -21 3 53 7 163 7 203 0 219 -1 131 -13 -68 -9 -106 -49 -106 -111 0 -57 22 -59 39 -4 13 45 40 67 92 76 70 11 77 14 82 36 3 11 2 30 -4 40 -9 17 -27 18 -240 18 -190 0 -231 -2 -235 -14z"/><path id="pjI46qVSJ" d="M5331 6066 c-7 -8 -11 -25 -9 -38 2 -18 13 -25 57 -35 100 -22 96 -6 99 -373 3 -309 4 -320 23 -320 18 0 19 9 19 303 0 166 -5 320 -10 341 -11 51 -36 74 -90 85 -31 6 27 9 185 9 158 0 216 -3 186 -9 -61 -12 -101 -56 -101 -110 0 -53 20 -50 43 5 19 46 33 55 111 72 46 11 66 35 50 62 -10 15 -37 17 -281 20 -227 2 -272 0 -282 -12z"/><path id="pK94R5lhc" d="M12218 6055 c-14 -32 1 -51 50 -60 20 -4 48 -13 63 -20 31 -17 59 -79 59 -133 0 -53 10 -82 28 -82 13 0 14 13 9 83 -7 94 -20 137 -42 137 -8 0 -15 6 -15 14 0 14 -37 32 -80 39 -14 2 63 4 170 4 135 1 180 -2 146 -8 -62 -10 -98 -36 -112 -80 -7 -19 -15 -96 -19 -171 -7 -122 -6 -138 8 -138 19 0 22 17 35 178 11 138 22 154 122 175 65 13 65 13 65 47 l0 35 -238 3 -237 2 -12 -25z"/><path id="plSrEhHNi" d="M4967 6058 c-14 -11 -167 -371 -376 -882 -46 -112 -61 -120 -61 -34 0 77 -8 108 -26 108 -11 0 -14 -22 -14 -104 0 -57 3 -111 6 -120 4 -10 18 -16 40 -16 41 0 24 -32 173 330 211 515 273 665 276 668 1 1 30 -60 63 -135 147 -331 192 -436 189 -439 -4 -5 -127 264 -127 277 0 6 -19 9 -41 7 l-42 -3 -203 -449 c-112 -247 -204 -457 -204 -467 0 -12 7 -19 18 -19 13 0 39 49 107 198 49 108 115 256 148 327 33 72 83 184 112 250 30 66 57 119 60 118 8 -2 41 -72 231 -488 143 -314 185 -398 202 -403 23 -7 13 52 -23 126 l-34 72 34 0 35 0 0 85 c0 66 -3 85 -14 85 -8 0 -17 -11 -20 -25 -5 -21 -10 -24 -25 -16 -11 6 -97 189 -221 468 -111 252 -209 466 -218 476 -18 20 -23 21 -45 5z m512 -1026 c1 -7 -3 -10 -9 -7 -5 3 -10 21 -9 38 1 31 1 31 9 7 4 -14 8 -31 9 -38z"/><path id="pAkIn37h8" d="M5680 5705 c0 -134 3 -165 14 -165 21 0 26 33 26 188 0 135 -1 142 -20 142 -19 0 -20 -7 -20 -165z"/><path id="pAwqz18kz" d="M12400 5369 c0 -336 -2 -385 -17 -416 -19 -40 -94 -93 -131 -93 -39 0 -62 -18 -62 -50 0 -30 13 -40 43 -32 12 3 17 11 14 22 -4 14 4 19 37 24 51 8 105 45 131 88 19 31 20 55 23 436 3 399 3 402 -18 402 -20 0 -20 -4 -20 -381z"/><path id="p5FdGXa3j" d="M13250 5669 c-30 -33 -56 -69 -58 -80 -2 -10 -9 -19 -16 -19 -13 0 -56 -41 -56 -53 0 -4 -16 -21 -35 -38 -19 -17 -35 -35 -35 -41 0 -5 -13 -21 -30 -35 -16 -13 -30 -29 -30 -35 0 -5 -13 -21 -30 -35 -16 -13 -30 -33 -30 -44 0 -10 -6 -19 -13 -19 -14 0 -57 -41 -57 -53 0 -4 -16 -21 -35 -38 -19 -17 -35 -35 -35 -41 0 -5 -13 -21 -30 -35 -16 -13 -30 -29 -30 -35 0 -5 -13 -21 -30 -35 -16 -13 -30 -33 -30 -44 0 -10 -6 -19 -13 -19 -14 0 -57 -41 -57 -53 0 -4 -16 -21 -35 -38 -28 -25 -35 -39 -35 -66 0 -32 2 -34 17 -22 18 16 702 801 748 860 32 41 45 48 45 24 0 -8 7 -15 15 -15 10 0 15 11 15 35 0 33 -2 35 -33 35 -27 0 -41 -10 -87 -61z"/><path id="pU9J4zng6" d="M4470 5570 c0 -63 2 -70 20 -70 17 0 20 7 20 48 0 61 -9 92 -26 92 -11 0 -14 -17 -14 -70z"/><path id="pAmjFHYHO" d="M4480 5375 c0 -98 1 -105 20 -105 18 0 20 7 20 83 0 95 -7 127 -26 127 -11 0 -14 -22 -14 -105z"/><path id="pDbCyX4XO" d="M5670 5395 c0 -66 3 -85 14 -85 18 0 26 31 26 108 0 55 -2 62 -20 62 -18 0 -20 -7 -20 -85z"/><path id="p1AMSXxsNW" d="M13336 5118 c-3 -13 -6 -38 -6 -55 0 -26 4 -33 20 -33 18 0 20 7 20 55 0 40 -4 55 -14 55 -7 0 -16 -10 -20 -22z"/><path id="pYCJSMmUG" d="M4440 5020 c0 -84 -2 -92 -28 -121 -21 -24 -38 -32 -74 -36 -79 -9 -106 -68 -41 -86 41 -12 103 -1 103 18 0 11 -12 15 -42 16 l-43 1 54 13 c32 8 65 24 80 39 24 24 26 34 29 136 4 106 4 110 -17 110 -20 0 -21 -5 -21 -90z"/><path id="p13WdmHGZB" d="M5660 5023 c1 -149 22 -187 112 -199 37 -5 52 -12 55 -25 3 -11 14 -19 24 -19 14 0 19 7 19 28 0 39 -17 52 -66 52 -31 0 -51 7 -71 24 -26 23 -28 29 -31 120 -4 86 -6 96 -23 96 -17 0 -19 -8 -19 -77z"/><path id="pRNTAbj9T" d="M13410 5043 c0 -58 19 -158 30 -161 5 -2 10 -10 10 -18 0 -8 6 -14 14 -14 8 0 16 -5 18 -10 2 -6 23 -14 48 -19 44 -9 43 -9 -27 -10 -55 -1 -73 -4 -73 -15 0 -24 71 -33 153 -20 32 6 37 10 37 33 0 37 -17 51 -63 51 -55 0 -93 40 -102 106 -13 102 -16 114 -30 114 -11 0 -15 -11 -15 -37z"/><path id="pfvHNhDTQ" d="M13325 4983 c-14 -81 -31 -97 -135 -122 -62 -15 -65 -17 -65 -46 0 -34 29 -48 37 -17 4 14 18 20 56 25 99 12 142 58 142 151 0 59 -26 65 -35 9z"/><path id="ptGUq75BE" d="M5640 4796 c0 -16 25 -24 53 -18 32 8 19 32 -18 32 -24 0 -35 -5 -35 -14z"/><path id="pC7kEIueu" d="M12280 4795 c0 -8 13 -16 33 -20 64 -11 137 0 137 21 0 11 -18 14 -85 14 -68 0 -85 -3 -85 -15z"/><path id="pQxTEKq5t" d="M13190 4796 c0 -8 14 -17 31 -21 42 -9 99 2 99 20 0 12 -15 15 -65 15 -49 0 -65 -3 -65 -14z"/><path id="pf5uCaPW0" d="M12766 4249 c-328 -38 -625 -211 -826 -480 -108 -146 -195 -353 -220 -524 -14 -101 -13 -115 9 -115 15 0 19 11 25 62 19 189 116 414 246 576 27 34 50 68 50 76 0 7 9 16 20 19 11 3 20 12 20 21 0 9 7 16 16 16 9 0 40 21 69 48 111 98 296 192 472 239 86 23 117 26 258 26 140 0 172 -3 256 -25 123 -33 228 -77 330 -139 45 -27 85 -49 90 -49 4 0 9 -7 13 -15 3 -8 15 -15 26 -15 11 0 20 -6 20 -13 0 -25 45 -57 80 -57 l34 0 -30 31 c-45 48 -180 147 -248 182 -229 118 -468 164 -710 136z"/><path id="p8t5rVvTL" d="M4885 4239 c-318 -43 -615 -225 -807 -494 -237 -333 -284 -785 -121 -1160 77 -176 182 -319 319 -434 216 -180 453 -275 720 -288 333 -16 639 98 881 329 168 162 275 340 335 563 31 114 32 128 32 300 0 161 -3 191 -26 280 -142 552 -615 921 -1171 914 -56 -1 -129 -5 -162 -10z m195 -368 c7 -28 32 -60 91 -117 108 -106 170 -189 229 -309 73 -149 94 -239 93 -410 0 -118 -4 -155 -26 -235 -60 -218 -158 -398 -301 -550 -39 -41 -82 -90 -96 -109 l-26 -34 -82 82 c-138 138 -233 294 -293 480 -131 409 -30 780 294 1087 68 64 87 88 92 117 4 20 9 37 11 37 2 0 8 -17 14 -39z"/><path id="p98gZlmlL" d="M13770 3848 c0 -27 7 -42 25 -56 14 -11 25 -24 25 -29 0 -6 10 -21 23 -35 93 -105 216 -425 217 -565 0 -26 4 -33 20 -33 25 0 25 16 4 141 -18 103 -60 231 -106 324 -39 77 -138 221 -177 259 l-31 30 0 -36z"/><path id="pk6Q1IEqZ" d="M11710 2947 c0 -90 50 -274 109 -402 57 -123 134 -229 245 -340 204 -203 414 -305 701 -341 226 -28 453 10 660 111 343 166 590 487 660 857 21 111 20 148 -4 148 -15 0 -19 -11 -25 -63 -14 -137 -80 -323 -161 -452 -30 -48 -55 -90 -55 -94 0 -3 -9 -12 -20 -19 -11 -7 -20 -16 -20 -21 0 -8 -165 -176 -179 -183 -3 -2 -46 -29 -94 -62 -149 -98 -330 -165 -510 -187 -236 -29 -515 42 -732 186 -50 33 -94 62 -99 64 -4 2 -24 21 -43 42 -20 22 -44 39 -54 39 -12 0 -19 7 -19 18 0 20 -39 62 -58 62 -7 0 -12 7 -12 15 0 8 -20 43 -45 78 -97 139 -188 372 -202 515 -5 52 -9 62 -24 62 -15 0 -19 -8 -19 -33z"/></g></g><g id="l7lMxNwSwhRWOLwXPecI43c" fill="rgb(39,94,141)" style="transform: none;"><g style="transform: none;"><path id="pKPGq76rp" d="M10760 6080 c-161 -25 -226 -89 -401 -399 -76 -135 -106 -161 -186 -161 -40 0 -53 4 -53 15 0 8 -7 15 -15 15 -10 0 -15 -11 -15 -35 l0 -35 70 0 c84 0 140 20 140 49 0 14 7 21 20 21 11 0 20 7 20 15 0 8 4 15 9 15 5 0 15 16 22 35 7 19 16 35 20 35 4 0 13 16 20 35 7 19 16 35 20 35 4 0 13 15 20 33 7 17 19 38 26 45 7 7 13 20 13 28 0 8 5 14 10 14 6 0 10 7 10 15 0 8 5 15 10 15 6 0 10 6 10 14 0 8 7 16 15 20 9 3 15 18 15 36 0 27 3 30 30 30 16 0 33 6 37 14 12 20 117 56 186 63 l60 6 -21 -21 c-12 -12 -26 -22 -30 -22 -14 0 -52 -45 -52 -61 0 -8 -9 -19 -21 -24 -12 -6 -28 -23 -38 -40 -9 -16 -21 -34 -27 -40 -16 -14 -93 -130 -101 -152 -4 -10 -14 -26 -22 -35 -9 -9 -29 -43 -46 -74 -16 -32 -36 -64 -42 -72 -7 -7 -13 -33 -13 -58 0 -43 1 -45 48 -67 26 -12 51 -28 55 -34 4 -7 14 -13 21 -13 8 0 16 -7 20 -15 3 -8 12 -15 21 -15 8 0 15 -6 15 -14 0 -7 12 -34 26 -59 34 -61 41 -138 19 -197 -9 -25 -22 -60 -28 -77 -7 -18 -17 -33 -24 -33 -6 0 -18 -8 -25 -17 -31 -42 -163 -93 -240 -93 -32 0 -38 -3 -38 -21 0 -21 3 -22 70 -15 171 16 284 99 325 241 32 108 0 237 -78 316 -20 20 -63 53 -96 74 -70 42 -72 24 17 169 148 245 260 388 331 421 37 18 41 24 39 50 -3 30 -4 30 -63 31 -33 1 -85 -2 -115 -6z"/><path id="pOlGNdUHu" d="M9720 6060 c-20 -37 -4 -57 52 -63 69 -9 95 -28 109 -82 15 -58 39 -61 39 -5 0 45 -18 90 -36 90 -7 0 -14 5 -16 10 -2 6 -23 14 -48 19 -40 8 -35 9 48 10 71 1 92 4 92 15 0 20 -32 26 -137 26 -83 0 -93 -2 -103 -20z"/><path id="phfWgTAba" d="M10138 6073 c-10 -2 -18 -11 -18 -19 0 -10 14 -14 53 -15 28 -1 43 -3 32 -6 -87 -19 -115 -48 -115 -118 0 -48 24 -46 38 4 16 50 32 63 100 76 61 12 84 34 66 63 -9 13 -26 17 -75 19 -35 0 -72 -1 -81 -4z"/><path id="p15VWruseP" d="M9890 5720 c0 -133 1 -140 20 -140 19 0 20 7 20 140 0 133 -1 140 -20 140 -19 0 -20 -7 -20 -140z"/><path id="pRhVUi4Jl" d="M9890 5395 c0 -78 2 -85 20 -85 18 0 20 7 20 85 0 78 -2 85 -20 85 -18 0 -20 -7 -20 -85z"/><path id="pWgD8AuYJ" d="M10190 5455 c0 -9 14 -16 38 -20 124 -18 174 -45 216 -118 14 -23 30 -66 36 -95 8 -36 17 -52 27 -52 13 0 15 10 10 60 -5 64 -48 155 -82 174 -10 6 -26 18 -36 27 -35 34 -209 54 -209 24z"/><path id="p1DzUtZBn0" d="M9890 5150 c0 -133 1 -140 20 -140 19 0 20 7 20 140 0 133 -1 140 -20 140 -19 0 -20 -7 -20 -140z"/><path id="prIv8E0A6" d="M10481 5070 c-29 -133 -102 -199 -231 -207 -78 -6 -117 7 -126 42 -3 14 -12 25 -20 25 -19 0 -19 -64 0 -83 18 -17 128 -31 182 -22 51 8 124 35 124 45 0 4 9 10 21 13 11 3 23 15 26 26 3 12 8 21 12 21 15 0 43 78 48 133 5 47 3 57 -10 57 -10 0 -19 -16 -26 -50z"/><path id="pEsqJb7fa" d="M9882 4931 c-15 -49 -27 -59 -91 -71 -67 -13 -71 -15 -71 -51 0 -22 5 -29 19 -29 10 0 21 8 24 19 3 13 18 20 56 25 28 4 51 11 51 16 0 6 6 10 13 10 18 0 37 43 37 85 0 48 -24 45 -38 -4z"/><path id="pUWhbDa4G" d="M10060 4231 c-251 -55 -425 -147 -600 -317 -152 -148 -246 -298 -308 -494 -46 -145 -55 -202 -56 -360 0 -165 16 -268 65 -400 146 -402 469 -685 884 -775 111 -25 313 -30 426 -11 446 73 801 373 950 801 40 116 59 241 59 386 0 199 -37 354 -126 530 -123 242 -295 414 -530 533 -182 92 -281 115 -509 121 -141 4 -184 2 -255 -14z m-56 -339 c36 -17 66 -33 66 -36 0 -3 -24 6 -52 19 -41 19 -70 25 -126 25 -40 0 -83 -5 -95 -11 -34 -17 -7 7 28 26 41 22 99 14 179 -23z m746 23 c17 -9 30 -17 30 -18 0 -1 -38 -1 -85 1 -74 3 -92 0 -140 -22 -65 -29 -74 -26 -13 5 99 51 158 60 208 34z m-1007 -87 c-15 -27 -18 -58 -18 -173 0 -84 6 -166 14 -204 l14 -63 51 5 c28 3 101 12 161 22 109 16 110 16 147 58 l38 42 0 -37 0 -38 136 0 136 0 -4 45 c-2 25 -2 45 -1 45 1 0 17 -22 37 -48 l35 -48 154 -23 c85 -13 162 -21 170 -18 37 14 56 343 24 420 -21 50 -13 47 15 -5 30 -60 36 -181 13 -296 -26 -135 -24 -139 65 -172 78 -28 180 -77 180 -85 0 -3 -19 4 -42 16 -117 60 -223 84 -245 57 -6 -7 -18 -38 -28 -68 -10 -30 -29 -78 -42 -108 -34 -78 -30 -119 25 -257 44 -109 51 -120 76 -123 35 -4 145 32 226 74 36 19 56 27 45 18 -32 -25 -93 -55 -185 -90 -79 -30 -85 -34 -88 -62 -2 -17 4 -64 12 -106 28 -132 16 -272 -28 -331 -12 -16 -12 -12 1 25 20 56 20 264 0 355 l-13 60 -49 -1 c-28 0 -102 -8 -165 -17 -112 -17 -116 -18 -147 -54 l-33 -38 0 33 0 32 -140 0 -140 0 0 -37 0 -38 -38 42 c-36 42 -39 43 -142 59 -183 28 -207 29 -218 8 -17 -33 -32 -148 -32 -246 0 -117 19 -187 61 -222 26 -22 40 -26 100 -26 43 0 87 7 119 19 66 25 64 16 -4 -14 -78 -35 -116 -39 -162 -20 -78 32 -116 90 -136 203 -10 58 -9 85 5 170 9 56 17 119 17 140 0 35 -3 41 -27 47 -39 9 -175 66 -170 71 2 2 32 -7 66 -22 46 -18 77 -24 114 -22 l51 3 39 100 c54 136 58 193 19 288 -16 39 -37 93 -46 120 -16 43 -20 47 -50 47 -32 0 -100 -21 -181 -55 -22 -9 -35 -12 -30 -7 6 6 46 25 90 42 44 17 90 35 103 40 28 12 29 55 6 179 -20 108 -14 191 19 265 14 31 29 56 32 56 3 0 -2 -15 -12 -32z m542 -118 c16 0 40 10 54 23 25 22 26 22 7 0 -13 -16 -17 -34 -15 -65 l4 -43 -42 4 c-42 3 -43 4 -43 39 0 25 -8 45 -27 66 l-28 31 31 -27 c18 -17 42 -28 59 -28z m-946 -581 c-6 -13 -9 -49 -7 -86 3 -55 2 -62 -9 -47 -21 29 -20 82 3 127 8 15 17 27 20 27 2 0 0 -10 -7 -21z m1916 -19 c8 -16 15 -41 15 -55 0 -23 -25 -85 -34 -85 -2 0 1 21 7 46 8 32 8 57 0 85 -12 47 -9 49 12 9z m-25 -153 c0 -2 -19 -21 -42 -42 l-43 -40 40 43 c36 39 45 47 45 39z m-1720 -123 c0 -2 -13 2 -30 11 -16 9 -30 18 -30 21 0 2 14 -2 30 -11 17 -9 30 -18 30 -21z m820 -394 c0 -39 -1 -40 -37 -40 -24 0 -46 -8 -62 -22 l-26 -23 23 26 c14 16 22 38 22 62 0 36 1 37 40 37 l40 0 0 -40z m363 -230 c71 -1 72 -1 43 -16 -35 -20 -84 -13 -161 21 -69 30 -72 40 -5 14 32 -12 77 -19 123 -19z"/><path id="p1H1PiraBX" d="M10058 3381 c-12 -15 -28 -37 -35 -47 -10 -17 -12 -14 -12 19 l-1 37 -47 0 c-27 -1 -77 -6 -113 -13 l-65 -12 1 -50 c0 -28 11 -76 25 -110 23 -57 26 -60 62 -63 20 -2 37 1 37 5 0 5 7 18 15 29 9 10 4 -4 -10 -33 -14 -29 -25 -68 -25 -88 0 -20 11 -59 25 -88 14 -29 19 -43 10 -33 -8 11 -15 23 -15 28 0 4 -17 8 -38 8 l-39 0 -26 -77 c-15 -43 -27 -92 -27 -110 0 -28 4 -33 38 -42 20 -6 72 -14 115 -17 l77 -7 0 37 c0 20 -7 48 -16 61 -9 14 -14 25 -11 25 3 0 22 -27 42 -60 20 -33 45 -65 55 -70 11 -6 102 -10 210 -10 l192 0 26 28 c15 15 34 38 42 51 15 23 16 22 12 -18 l-4 -41 48 1 c27 1 78 6 114 13 l65 11 -1 55 c0 31 -10 80 -23 113 -21 53 -25 57 -55 57 -17 0 -38 -6 -45 -12 -9 -9 -8 -2 3 19 21 41 21 115 0 156 -11 21 -12 28 -3 20 7 -7 27 -13 45 -13 30 0 33 3 58 71 14 38 26 89 26 113 l0 43 -77 11 c-43 7 -92 12 -110 12 -30 0 -32 -2 -35 -42 l-3 -43 -24 40 c-40 66 -35 65 -257 65 l-202 0 -24 -29z m-93 -151 c-9 -16 -18 -30 -21 -30 -2 0 2 14 11 30 9 17 18 30 21 30 2 0 -2 -13 -11 -30z m665 -20 c11 -22 18 -40 15 -40 -2 0 -14 18 -25 40 -11 22 -18 40 -15 40 2 0 14 -18 25 -40z m-303 -15 c48 -20 71 -41 95 -89 13 -26 18 -49 14 -69 -9 -46 -54 -97 -102 -118 -40 -18 -46 -19 -81 -4 -92 39 -136 123 -99 193 25 47 90 98 129 101 4 1 24 -6 44 -14z m293 -312 c-18 -32 -37 -62 -43 -68 -6 -5 1 10 15 35 14 25 31 55 37 68 6 12 14 22 17 22 3 0 -9 -26 -26 -57z m-655 -3 c9 -16 13 -30 11 -30 -3 0 -12 14 -21 30 -9 17 -13 30 -11 30 3 0 12 -13 21 -30z"/></g></g><g id="l1yzKRUa0MLR9lfbMDjTJnS" fill="rgb(59,153,69)" style="transform: none;"><g style="transform: none;"><path id="pTq4Dol2T" d="M12934 5593 c-229 -274 -421 -499 -425 -501 -5 -2 -9 3 -9 12 0 9 -7 16 -15 16 -10 0 -15 -11 -15 -35 0 -33 2 -35 35 -35 24 0 35 5 35 15 0 8 7 15 15 15 10 0 15 10 15 29 0 25 4 30 28 33 21 2 28 9 30 30 2 19 10 28 25 30 15 2 23 11 25 30 2 19 10 28 25 30 15 2 23 11 25 30 2 19 10 28 25 30 15 2 23 11 25 30 2 19 10 28 25 30 17 2 23 11 25 35 3 26 8 32 30 35 21 2 28 9 30 30 2 19 10 28 25 30 15 2 23 11 25 30 2 19 10 28 25 30 15 2 23 11 25 30 2 19 10 28 25 30 15 2 23 11 25 30 2 19 10 28 25 30 17 2 23 11 25 35 3 26 8 32 30 35 21 2 28 9 30 30 2 19 10 28 25 30 15 2 23 11 25 30 2 19 10 28 25 30 15 2 23 11 25 30 2 19 10 28 25 30 15 2 23 11 25 30 2 19 10 28 25 30 12 2 26 13 32 26 5 12 15 22 22 22 7 0 13 9 13 20 0 60 -46 12 -456 -477z"/><path id="pbAttKeNa" d="M13400 6055 c0 -39 24 -49 33 -14 7 27 -1 49 -19 49 -9 0 -14 -12 -14 -35z"/><path id="p1FXUHNM5E" d="M4203 6054 c-10 -26 11 -48 50 -55 75 -12 110 -52 126 -144 16 -91 62 -673 64 -812 2 -120 1 -123 -24 -148 -16 -16 -47 -31 -79 -38 -55 -12 -78 -33 -67 -61 6 -14 29 -16 190 -16 l184 0 205 452 c113 249 209 453 214 455 5 2 17 -17 27 -41 10 -25 103 -228 207 -453 l189 -408 185 -3 c166 -2 187 -1 193 14 11 29 -11 47 -71 59 -66 13 -84 28 -96 79 -9 43 14 977 25 997 20 35 51 59 84 64 62 10 83 23 79 48 l-3 22 -271 3 c-222 2 -273 0 -283 -12 -16 -20 -3 -45 28 -52 118 -24 124 -34 129 -211 6 -181 -8 -787 -18 -776 -4 4 -76 166 -160 358 -302 689 -297 680 -318 683 -31 5 -2 69 -313 -688 -137 -334 -139 -336 -148 -322 -4 6 -8 49 -9 94 -2 46 -7 169 -12 273 -6 105 -10 263 -10 351 l0 162 28 30 c21 23 41 32 78 37 72 10 76 12 72 42 l-3 28 -233 3 c-209 2 -233 1 -239 -14z"/><path id="p15YquRcQT" d="M12220 6040 c0 -24 5 -31 25 -35 14 -3 36 -7 49 -10 37 -8 84 -52 90 -85 3 -17 9 -43 12 -60 3 -18 12 -30 21 -30 13 0 15 10 9 63 -3 34 -11 64 -16 65 -6 2 -10 13 -10 24 0 11 -8 22 -20 25 -11 3 -20 9 -20 14 0 5 -16 9 -35 9 -19 0 -35 5 -35 10 0 6 -7 10 -15 10 -8 0 -15 7 -15 15 0 8 -9 15 -20 15 -16 0 -20 -7 -20 -30z"/><path id="pUFTKVcVF" d="M12660 6056 c0 -10 -16 -17 -45 -22 -38 -5 -45 -10 -45 -29 0 -21 3 -22 38 -14 20 5 49 11 63 14 29 5 42 26 33 50 -8 19 -44 20 -44 1z"/><path id="p18H28W4bx" d="M12486 5939 c-10 -51 -7 -79 8 -79 8 0 17 14 21 33 4 17 13 42 21 55 14 21 13 22 -15 22 -24 0 -29 -5 -35 -31z"/><path id="pSRtvS16r" d="M12470 5775 c0 -40 4 -55 14 -55 16 0 26 30 26 78 0 25 -4 32 -20 32 -18 0 -20 -7 -20 -55z"/><path id="p1FxeBOUmO" d="M12400 5768 c0 -48 10 -78 26 -78 10 0 14 15 14 55 0 48 -2 55 -20 55 -16 0 -20 -7 -20 -32z"/><path id="pjKoVOHXP" d="M13287 5723 c-4 -3 -7 -17 -7 -29 0 -16 -7 -24 -22 -26 -18 -2 -24 -11 -26 -35 -3 -27 -8 -33 -26 -33 -30 0 -46 -18 -46 -51 0 -23 -5 -28 -27 -31 -24 -3 -28 -8 -31 -40 -3 -33 -6 -37 -35 -40 -28 -3 -32 -7 -35 -35 -3 -26 -8 -32 -30 -35 -22 -2 -28 -9 -30 -35 -3 -27 -8 -33 -26 -33 -30 0 -46 -18 -46 -51 0 -23 -5 -28 -27 -31 -24 -3 -28 -8 -31 -40 -3 -34 -6 -38 -31 -38 -33 0 -51 -16 -51 -47 0 -15 -6 -23 -18 -23 -25 0 -42 -19 -42 -47 0 -16 -6 -23 -18 -23 -24 0 -52 -31 -52 -58 0 -14 -7 -22 -22 -24 -19 -2 -24 -10 -26 -40 -3 -34 -6 -38 -31 -38 -15 0 -32 -5 -39 -12 -18 -18 -15 -48 6 -48 10 0 175 182 417 462 257 296 401 455 403 445 6 -29 22 -19 22 13 0 27 -3 30 -33 30 -19 0 -37 -3 -40 -7z"/><path id="pkqxSTZwG" d="M13400 5140 c0 -53 2 -60 20 -60 16 0 20 7 20 38 0 52 -10 82 -26 82 -10 0 -14 -16 -14 -60z"/><path id="p142YvCaEC" d="M13336 5068 c-12 -48 -7 -78 14 -78 17 0 20 7 20 50 0 36 -4 50 -14 50 -7 0 -16 -10 -20 -22z"/><path id="p154haWaW5" d="M13414 4973 c4 -38 11 -69 16 -71 6 -2 10 -10 10 -19 0 -19 24 -43 44 -43 9 0 16 -4 16 -10 0 -5 12 -10 26 -10 17 0 28 -6 31 -20 3 -13 14 -20 29 -20 20 0 24 5 24 30 0 32 -4 35 -61 44 -47 8 -87 48 -94 95 -14 82 -17 91 -32 91 -13 0 -15 -10 -9 -67z"/><path id="pd2zb8gD9" d="M12401 4985 c-18 -72 -98 -135 -172 -135 -38 0 -53 -61 -16 -68 12 -2 17 3 17 17 0 17 6 21 35 21 24 0 35 5 35 15 0 11 11 15 36 15 27 0 37 5 41 20 3 11 12 20 19 20 9 0 14 12 14 35 0 24 5 35 15 35 10 0 15 11 15 35 0 51 -25 45 -39 -10z"/><path id="pCSQtX9z2" d="M13330 4969 c0 -27 -35 -81 -61 -94 -15 -8 -52 -18 -81 -23 -51 -7 -53 -9 -56 -40 -3 -27 0 -32 17 -32 12 0 21 6 21 14 0 16 21 26 54 26 37 0 86 21 86 36 0 8 7 14 15 14 18 0 35 39 35 81 0 19 -5 29 -15 29 -8 0 -15 -5 -15 -11z"/><path id="pOqFKRnaW" d="M12725 4239 c-280 -40 -572 -208 -745 -429 -146 -185 -220 -354 -255 -580 -19 -123 -19 -130 4 -130 15 0 19 11 25 73 3 39 13 97 21 127 8 30 15 67 15 83 0 15 5 27 10 27 6 0 10 11 10 25 0 14 5 25 10 25 6 0 10 11 10 25 0 14 4 25 8 25 5 0 22 28 38 63 16 34 32 64 37 65 4 2 7 15 7 28 0 15 6 24 15 24 8 0 15 9 15 20 0 11 7 20 15 20 8 0 15 9 15 20 0 11 7 20 15 20 10 0 15 10 15 30 0 25 4 30 23 30 32 0 87 59 87 93 0 24 4 27 36 27 27 0 37 5 41 20 3 11 14 20 24 20 11 0 19 5 19 10 0 6 7 10 15 10 8 0 15 5 15 10 0 6 7 10 15 10 8 0 15 7 15 15 0 8 9 15 20 15 23 0 70 20 70 30 0 4 13 10 29 13 16 3 35 12 42 20 8 8 26 16 39 19 14 3 65 17 114 32 49 14 120 29 157 32 58 6 69 10 69 25 0 21 -15 22 -115 8z"/><path id="p9pGzBim3" d="M12980 4230 c0 -17 7 -20 40 -20 45 0 57 23 18 34 -42 11 -58 7 -58 -14z"/><path id="pN8CnSm1j" d="M13070 4223 c0 -14 18 -22 88 -40 129 -33 176 -47 182 -54 11 -14 50 -29 74 -29 16 0 26 -6 26 -14 0 -15 21 -26 51 -26 10 0 19 -7 19 -15 0 -8 7 -15 15 -15 8 0 15 -4 15 -10 0 -5 7 -10 15 -10 8 0 15 -4 15 -10 0 -5 8 -10 19 -10 10 0 21 -9 24 -20 4 -15 14 -20 41 -20 33 0 36 -3 36 -28 0 -32 64 -102 93 -102 12 0 17 -8 17 -25 0 -14 7 -28 15 -31 8 -4 15 -12 15 -20 0 -8 7 -14 15 -14 8 0 15 -9 15 -20 0 -11 7 -20 15 -20 9 0 15 -9 15 -24 0 -13 3 -26 8 -28 4 -1 20 -31 36 -65 16 -35 33 -63 38 -63 4 0 8 -11 8 -25 0 -14 5 -25 10 -25 6 0 10 -11 10 -25 0 -14 4 -25 9 -25 5 0 11 -17 13 -37 3 -21 11 -68 19 -105 11 -55 17 -68 32 -68 16 0 18 5 12 43 -60 386 -318 728 -676 896 -84 40 -217 83 -296 96 -38 6 -43 4 -43 -12z"/><path id="pqMJmXIHG" d="M5062 4101 c-7 -4 -16 -27 -18 -50 -4 -36 -3 -41 16 -41 15 0 20 6 20 24 0 13 4 26 9 28 5 2 11 12 13 23 3 21 -19 30 -40 16z"/><path id="pqiNyZyPv" d="M5025 3898 c-5 -23 -33 -56 -92 -112 -154 -145 -265 -321 -318 -502 -35 -118 -44 -305 -22 -450 39 -254 152 -484 323 -659 68 -69 69 -70 72 -41 4 35 -40 86 -75 86 -18 0 -23 6 -23 25 0 14 -20 52 -44 84 -98 133 -181 335 -212 515 -24 135 -15 315 21 426 33 102 78 194 139 283 25 37 46 74 46 82 0 8 6 15 13 15 8 0 46 34 86 75 40 40 80 77 90 80 18 5 31 48 31 103 0 34 -27 26 -35 -10z"/><path id="phs2Woyng" d="M5090 3878 c0 -6 -12 -41 -26 -77 -29 -72 -29 -89 -8 -553 l7 -138 32 0 c30 0 33 3 47 51 7 27 17 51 21 51 4 0 43 -3 87 -6 53 -5 80 -12 80 -20 0 -7 11 -27 25 -46 14 -19 25 -42 25 -52 0 -15 8 -18 45 -18 42 0 45 2 45 28 0 15 5 34 11 42 7 11 9 -25 6 -120 -4 -147 -27 -249 -90 -400 -51 -123 -150 -284 -206 -334 -14 -13 -21 -31 -21 -55 l0 -35 36 35 c74 70 181 240 236 374 16 38 40 112 55 165 23 85 26 113 26 265 1 146 -2 182 -22 255 -48 180 -132 321 -280 472 -52 53 -98 104 -103 112 -10 19 -28 21 -28 4z"/><path id="pY3WA60Hh" d="M14060 3150 c0 -33 3 -40 20 -40 21 0 25 16 14 58 -11 39 -34 27 -34 -18z"/><path id="pJpemMKAT" d="M11710 2988 c0 -39 12 -68 26 -68 10 0 14 13 14 45 0 38 -3 45 -20 45 -14 0 -20 -7 -20 -22z"/><path id="p4cZXbKxV" d="M14060 2976 c0 -92 -60 -306 -116 -418 -13 -26 -24 -56 -24 -68 0 -11 -7 -20 -15 -20 -8 0 -15 -7 -15 -15 0 -8 -4 -15 -10 -15 -5 0 -10 -7 -10 -15 0 -8 -4 -15 -10 -15 -5 0 -10 -7 -10 -15 0 -8 -4 -15 -10 -15 -5 0 -10 -11 -10 -24 0 -18 -6 -25 -22 -28 -18 -2 -24 -11 -26 -35 -3 -27 -7 -33 -28 -33 -20 0 -24 -5 -24 -31 0 -28 2 -30 17 -18 25 21 73 75 120 137 124 165 203 374 228 600 7 58 6 62 -14 62 -17 0 -21 -6 -21 -34z"/><path id="p10BpPAE0M" d="M11725 2863 c16 -109 83 -303 104 -303 19 0 12 46 -24 153 -19 58 -38 126 -41 151 -5 37 -11 46 -26 46 -18 0 -20 -4 -13 -47z"/><path id="pY7GQCi3Q" d="M11860 2481 c0 -20 121 -189 177 -246 58 -60 58 -60 61 -32 4 37 -13 57 -49 57 -27 0 -29 3 -29 36 0 27 -5 37 -20 41 -11 3 -20 14 -20 24 0 11 -4 19 -10 19 -5 0 -10 7 -10 15 0 8 -4 15 -10 15 -5 0 -10 7 -10 15 0 8 -4 15 -9 15 -5 0 -12 11 -15 25 -5 18 -13 25 -31 25 -14 0 -25 -4 -25 -9z"/><path id="pZaNb4sdr" d="M5064 2140 c-15 -22 -35 -40 -44 -40 -17 0 -17 -3 3 -40 12 -22 25 -40 28 -40 4 0 12 15 19 33 8 17 29 53 48 80 l34 47 -31 0 c-25 0 -36 -8 -57 -40z"/><path id="pGefdt5Ha" d="M12126 2149 c35 -39 214 -151 302 -189 82 -35 272 -90 313 -90 12 0 19 7 19 20 0 14 -7 20 -23 20 -12 0 -63 12 -112 26 -50 14 -108 31 -130 37 -22 7 -42 15 -45 18 -11 13 -90 49 -110 49 -11 0 -20 7 -20 15 0 8 -7 15 -15 15 -8 0 -15 5 -15 10 0 6 -7 10 -15 10 -8 0 -15 5 -15 10 0 6 -7 10 -15 10 -8 0 -15 5 -15 10 0 6 -8 10 -19 10 -10 0 -21 9 -24 20 -4 16 -14 20 -43 20 l-37 0 19 -21z"/><path id="pEYnqIvid" d="M13623 2150 c-3 -11 -14 -20 -24 -20 -11 0 -19 -4 -19 -10 0 -5 -7 -10 -15 -10 -8 0 -15 -9 -15 -20 0 -16 -7 -20 -30 -20 -20 0 -30 -5 -30 -15 0 -8 -9 -15 -20 -15 -24 0 -90 -31 -90 -42 0 -4 -8 -8 -17 -8 -24 0 -83 -23 -83 -32 0 -4 -9 -8 -20 -8 -11 0 -53 -9 -92 -20 -40 -11 -83 -20 -95 -20 -17 0 -23 -6 -23 -21 0 -20 4 -21 47 -14 72 11 209 52 297 90 81 35 256 146 290 184 l19 21 -37 0 c-29 0 -39 -4 -43 -20z"/><path id="pDnUnhpb0" d="M12770 1886 c0 -7 10 -16 23 -20 41 -11 57 -7 57 14 0 17 -7 20 -40 20 -27 0 -40 -4 -40 -14z"/><path id="pIERLJzkk" d="M12960 1880 c0 -21 16 -25 58 -14 39 11 27 34 -18 34 -33 0 -40 -3 -40 -20z"/></g></g><g id="l2IfBuYprekqgIqxrSuARzm" fill="rgb(64,161,70)" style="transform: none;"><g style="transform: none;"><path id="p1V4sgsPY" d="M13348 6078 c-8 -7 -51 -56 -94 -108 -118 -142 -112 -130 -75 -130 28 0 31 3 31 30 0 25 4 30 25 30 21 0 25 5 25 30 0 25 4 30 25 30 22 0 25 4 25 35 0 32 2 35 30 35 27 0 30 3 30 30 0 34 -1 35 -22 18z"/><path id="pRBO7ahcC" d="M4654 6047 c-9 -24 6 -44 18 -22 7 11 6 21 -1 28 -7 7 -12 6 -17 -6z"/><path id="pTorvKdeR" d="M4969 6049 c-12 -7 -11 -11 4 -26 10 -11 17 -13 17 -5 0 7 -6 12 -12 13 -7 1 -2 4 12 8 19 5 21 8 9 13 -9 3 -22 2 -30 -3z"/><path id="p5NI982Fg" d="M12610 6020 c0 -21 10 -24 48 -14 36 10 27 34 -13 34 -28 0 -35 -4 -35 -20z"/><path id="p9C24ibPp" d="M12270 6016 c0 -8 13 -17 29 -21 16 -3 41 -17 55 -30 l26 -24 0 34 c0 28 -4 35 -20 35 -11 0 -20 5 -20 10 0 6 -16 10 -35 10 -24 0 -35 -5 -35 -14z"/><path id="pEB2a7Lv7" d="M12480 5905 c0 -40 24 -49 34 -12 10 37 7 47 -14 47 -16 0 -20 -7 -20 -35z"/><path id="pY6bTYkbK" d="M12390 5898 c0 -30 13 -58 26 -58 9 0 14 12 14 35 0 28 -4 35 -20 35 -11 0 -20 -6 -20 -12z"/><path id="pjyrds8ef" d="M12470 5810 c0 -45 23 -57 34 -17 11 41 7 57 -14 57 -17 0 -20 -7 -20 -40z"/><path id="phXGDEwy4" d="M13029 5702 c-102 -123 -96 -112 -60 -112 28 0 31 3 31 30 0 25 4 30 25 30 21 0 25 5 25 30 0 25 4 30 25 30 22 0 25 4 25 35 0 19 -2 35 -3 35 -2 0 -33 -35 -68 -78z"/><path id="pkGjudqUW" d="M13340 5615 c0 -48 2 -55 20 -55 18 0 20 7 20 55 0 48 -2 55 -20 55 -18 0 -20 -7 -20 -55z"/><path id="p1FvG6fOT1" d="M13150 5535 c0 -32 -2 -35 -30 -35 -28 0 -30 -2 -30 -37 l1 -38 40 45 c21 25 49 57 60 73 l20 27 -30 0 c-29 0 -31 -3 -31 -35z"/><path id="p8k4lPzpn" d="M5494 5415 c0 -60 1 -84 3 -52 2 32 2 81 0 110 -2 29 -3 3 -3 -58z"/><path id="pqDO0af5r" d="M13340 5465 c0 -48 2 -55 20 -55 18 0 20 7 20 55 0 48 -2 55 -20 55 -18 0 -20 -7 -20 -55z"/><path id="pwukkHbxh" d="M12808 5440 l-28 -35 26 -3 c33 -4 36 -1 32 39 l-3 34 -27 -35z"/><path id="pQB5EdUId" d="M5684 5230 c0 -74 1 -105 3 -67 2 37 2 97 0 135 -2 37 -3 6 -3 -68z"/><path id="paawxT9aT" d="M13340 5310 c0 -43 3 -50 20 -50 17 0 20 7 20 50 0 43 -3 50 -20 50 -17 0 -20 -7 -20 -50z"/><path id="pFjtVgUz4" d="M12960 5314 c0 -39 9 -38 40 6 l21 30 -30 0 c-29 0 -31 -3 -31 -36z"/><path id="pvks7nXkQ" d="M12890 5235 c0 -32 -2 -35 -30 -35 -28 0 -30 -2 -30 -37 l1 -38 40 45 c21 25 49 57 60 73 l20 27 -30 0 c-29 0 -31 -3 -31 -35z"/><path id="p13SYfbY9U" d="M12537 5118 c-32 -38 -36 -40 -37 -20 0 37 -20 25 -20 -13 0 -33 2 -35 35 -35 28 0 35 4 35 20 0 11 7 20 15 20 10 0 15 11 15 35 0 19 -2 35 -4 35 -2 0 -20 -19 -39 -42z"/><path id="p2kqS1SrQ" d="M4788 5135 c-3 -11 -9 -29 -13 -40 -3 -11 1 -7 10 8 9 16 15 33 12 40 -2 6 -6 3 -9 -8z"/><path id="pXLpERqJo" d="M13400 5105 c0 -28 4 -35 20 -35 21 0 24 10 14 48 -10 36 -34 27 -34 -13z"/><path id="ptDU8NSVe" d="M13336 5028 c-10 -38 -7 -48 14 -48 16 0 20 7 20 35 0 40 -24 49 -34 13z"/><path id="psgzgWyJV" d="M12570 4864 c0 -39 9 -38 40 6 l21 30 -30 0 c-29 0 -31 -3 -31 -36z"/><path id="p15Maqquuc" d="M13148 4843 c-20 -5 -25 -43 -5 -43 32 0 57 14 57 31 0 19 -14 22 -52 12z"/><path id="pKJ89H0mi" d="M13570 4824 c0 -17 6 -24 20 -24 13 0 20 7 20 19 0 10 -9 21 -20 24 -16 4 -20 0 -20 -19z"/><path id="p1G3bDuke0" d="M12970 4230 c0 -16 7 -20 35 -20 40 0 49 24 13 34 -38 10 -48 7 -48 -14z"/><path id="p198XGkUMi" d="M13060 4221 c0 -18 39 -31 98 -31 44 0 23 28 -28 39 -67 14 -70 14 -70 -8z"/><path id="poY5t7q6r" d="M12648 4223 c-33 -8 -20 -33 17 -33 28 0 35 4 35 20 0 20 -14 23 -52 13z"/><path id="pxP8fwSkr" d="M13190 4190 c0 -16 7 -20 35 -20 40 0 49 24 13 34 -38 10 -48 7 -48 -14z"/><path id="pMWwtLrY1" d="M12463 4165 c-43 -18 -42 -35 2 -35 31 0 35 3 35 25 0 14 -1 25 -2 25 -2 -1 -18 -7 -35 -15z"/><path id="pSHDYh05T" d="M13310 4155 c0 -22 4 -25 36 -25 44 0 42 18 -4 37 -31 13 -32 12 -32 -12z"/><path id="p2aK3SgNQ" d="M12373 4124 c-43 -21 -42 -34 2 -34 31 0 35 3 35 25 0 14 -1 25 -2 25 -2 0 -18 -8 -35 -16z"/><path id="p1FqJ7OCLW" d="M13400 4116 c0 -26 17 -36 61 -36 22 0 29 -5 29 -20 0 -16 7 -20 35 -20 19 0 35 4 35 8 0 8 -109 73 -142 85 -14 5 -18 1 -18 -17z"/><path id="p14LWsPkpo" d="M12278 4072 c-37 -22 -35 -32 7 -32 31 0 35 3 35 25 0 29 -6 30 -42 7z"/><path id="pJvTOVJv7" d="M12190 4010 l-35 -29 38 -1 c35 0 37 2 37 30 0 17 -1 30 -3 30 -1 0 -18 -13 -37 -30z"/><path id="psxlGARMw" d="M13580 4011 c0 -29 3 -31 36 -31 39 0 38 9 -6 40 l-30 21 0 -30z"/><path id="pQ8oPN861" d="M5020 3856 c0 -8 -8 -17 -19 -21 -10 -3 -26 -14 -36 -25 -17 -19 -17 -20 3 -20 13 0 22 -6 22 -15 0 -9 9 -15 25 -15 22 0 25 -4 25 -35 0 -50 24 -45 39 8 7 23 21 57 32 75 l18 32 -29 0 c-17 0 -30 -5 -31 -12 0 -7 -5 -1 -11 15 -10 28 -38 38 -38 13z"/><path id="pRV1dPkBP" d="M11988 3820 l-28 -35 26 -3 c33 -4 36 -1 32 39 l-3 34 -27 -35z"/><path id="pprCqehKY" d="M11923 3731 c-40 -53 -41 -61 -8 -61 15 0 25 6 25 14 0 8 5 16 11 18 6 2 9 19 7 38 l-3 35 -32 -44z"/><path id="p1AdmYzyCO" d="M13850 3735 c0 -19 5 -35 10 -35 6 0 10 -7 10 -15 0 -9 9 -15 25 -15 14 0 25 4 25 8 0 11 -58 92 -65 92 -3 0 -5 -16 -5 -35z"/><path id="pmQoBsCUv" d="M4834 3678 c-106 -116 -216 -348 -238 -500 -6 -42 -5 -48 11 -48 15 0 22 18 40 91 22 91 93 257 125 293 10 11 24 32 30 48 7 15 16 28 20 28 5 0 8 5 8 11 0 7 7 17 16 23 10 8 14 23 12 45 l-3 33 -21 -24z"/><path id="p66SCvRjR" d="M5036 3503 c5 -87 9 -420 8 -740 l-1 -583 29 0 c18 0 28 -5 28 -15 0 -8 -9 -15 -20 -15 -11 0 -20 -7 -20 -15 0 -17 -16 -20 -25 -5 -3 6 -22 10 -42 10 l-36 0 42 -45 c22 -24 41 -49 41 -55 0 -22 17 -8 28 24 7 19 49 74 93 123 172 189 257 339 325 573 22 75 28 123 32 227 5 148 -4 255 -19 232 -7 -9 -8 -1 -5 26 3 22 3 31 -1 20 -3 -11 -12 -24 -20 -30 -7 -6 -19 -38 -26 -73 -7 -37 -17 -62 -24 -62 -7 0 -13 8 -13 19 0 10 -9 30 -20 43 -11 14 -24 37 -29 50 -9 23 -15 25 -82 26 -45 1 -78 7 -88 15 -44 38 -53 30 -83 -73 -13 -44 -13 -43 -19 80 -20 394 -21 400 -42 400 -19 0 -19 -4 -11 -157z"/><path id="p1H4InLdlr" d="M11784 3464 c-8 -19 -17 -48 -21 -65 -5 -24 -2 -29 14 -29 14 0 23 11 31 39 25 81 5 126 -24 55z"/><path id="pfhle7PJh" d="M14010 3405 c0 -28 4 -35 20 -35 21 0 24 10 14 48 -10 36 -34 27 -34 -13z"/><path id="p17CGwbfLn" d="M5471 3340 c0 -8 4 -24 9 -35 5 -13 9 -14 9 -5 0 8 -4 24 -9 35 -5 13 -9 14 -9 5z"/><path id="p6I73rye6" d="M11736 3298 c-10 -38 -7 -48 14 -48 16 0 20 7 20 35 0 40 -24 49 -34 13z"/><path id="pETYJGtVp" d="M14040 3301 c0 -10 3 -39 6 -65 5 -37 11 -46 26 -46 21 0 21 5 2 103 -6 30 -34 37 -34 8z"/><path id="pPvx6gGmu" d="M14060 3135 c0 -28 4 -35 20 -35 21 0 24 10 14 48 -10 36 -34 27 -34 -13z"/><path id="pEAtL8gIr" d="M11716 3138 c-11 -42 -7 -58 14 -58 17 0 20 7 20 40 0 45 -23 57 -34 18z"/><path id="pBOO6tXAB" d="M4586 3055 c-8 -33 3 -75 20 -75 10 0 14 14 14 50 0 55 -23 71 -34 25z"/><path id="psKhdfiuw" d="M11710 3018 c0 -39 12 -68 26 -68 10 0 14 13 14 45 0 38 -3 45 -20 45 -14 0 -20 -7 -20 -22z"/><path id="pzqric1YS" d="M4595 2868 c10 -90 51 -241 88 -327 35 -81 57 -102 57 -52 0 33 -19 81 -32 81 -4 0 -8 7 -8 15 0 8 -13 62 -29 120 -17 58 -33 132 -37 165 -6 51 -10 60 -26 60 -19 0 -19 -5 -13 -62z"/><path id="pzq05ao1Z" d="M11724 2883 c14 -82 18 -93 32 -93 16 0 17 15 8 84 -5 37 -11 46 -26 46 -18 0 -19 -5 -14 -37z"/><path id="pqR21t8Ps" d="M13900 2455 c0 -43 10 -44 33 -6 22 38 22 41 -8 41 -22 0 -25 -4 -25 -35z"/><path id="p5ZecJywM" d="M4730 2443 c0 -23 144 -232 170 -248 6 -4 10 9 10 30 0 28 -5 38 -20 42 -11 3 -20 14 -20 24 0 11 -7 19 -15 19 -8 0 -15 9 -15 20 0 11 -4 20 -10 20 -5 0 -10 7 -10 15 0 8 -7 15 -15 15 -8 0 -15 9 -15 19 0 35 -12 51 -36 51 -13 0 -24 -3 -24 -7z"/><path id="pEFCN16pv" d="M11949 2343 c11 -16 33 -44 50 -63 l30 -35 1 38 c0 30 -3 37 -20 37 -15 0 -20 7 -20 25 0 21 -5 25 -31 25 l-30 0 20 -27z"/><path id="pIYbzFL7n" d="M13820 2340 c0 -25 -4 -30 -25 -30 -22 0 -25 -4 -25 -37 l1 -38 35 40 c19 22 44 52 55 68 l20 27 -30 0 c-28 0 -31 -3 -31 -30z"/><path id="p19EsFraZD" d="M13640 2149 l0 -30 30 21 c44 31 45 40 6 40 -33 0 -36 -2 -36 -31z"/><path id="pryqNgDSZ" d="M12155 2130 c3 -5 19 -19 35 -30 l30 -21 0 30 c0 29 -3 31 -36 31 -20 0 -33 -4 -29 -10z"/><path id="pV5Wb27hL" d="M13520 2065 c0 -31 11 -32 47 0 l28 24 -37 1 c-34 0 -38 -3 -38 -25z"/><path id="pDhtwDxVm" d="M12270 2052 c0 -8 52 -42 64 -42 3 0 6 11 6 25 0 22 -4 25 -35 25 -19 0 -35 -4 -35 -8z"/><path id="pIYShhJYK" d="M12412 1978 c3 -7 19 -18 36 -25 31 -13 32 -12 32 12 0 22 -4 25 -36 25 -23 0 -34 -4 -32 -12z"/><path id="pgrIccEXz" d="M12490 1950 c0 -12 33 -30 54 -30 9 0 16 9 16 20 0 16 -7 20 -35 20 -19 0 -35 -4 -35 -10z"/><path id="pi7dISzTj" d="M13250 1940 c0 -22 20 -26 51 -10 30 16 23 30 -16 30 -28 0 -35 -4 -35 -20z"/><path id="pVSMxyjMR" d="M12640 1906 c0 -13 28 -26 58 -26 6 0 12 9 12 20 0 16 -7 20 -35 20 -23 0 -35 -5 -35 -14z"/><path id="peM81fkNs" d="M13073 1913 c-25 -3 -33 -9 -33 -25 0 -18 4 -19 38 -14 81 14 92 18 92 32 0 14 -24 16 -97 7z"/><path id="pZ37Xpro7" d="M12790 1886 c0 -13 28 -26 58 -26 6 0 12 9 12 20 0 16 -7 20 -35 20 -23 0 -35 -5 -35 -14z"/><path id="p1CiLp0bou" d="M12950 1880 c0 -21 10 -24 48 -14 36 10 27 34 -13 34 -28 0 -35 -4 -35 -20z"/></g></g><g id="l74cpWbl6i95u2pX2lCVk9J" fill="rgb(75,176,71)" style="transform: none;"><g style="transform: none;"><path id="ptOi3I5vG" d="M5024 3823 c4 -30 4 -33 -4 -15 -5 12 -14 22 -21 22 -22 0 -161 -146 -219 -231 -130 -189 -190 -368 -190 -564 0 -340 140 -682 366 -895 33 -30 68 -68 80 -84 l21 -29 7 29 c9 36 41 79 121 164 68 73 110 126 145 185 23 39 23 40 2 21 -12 -11 -22 -25 -22 -32 0 -7 -10 -21 -23 -31 -13 -10 -25 -22 -26 -28 -8 -27 -23 -45 -33 -39 -7 5 -8 2 -3 -6 6 -9 1 -10 -16 -5 -13 3 -32 9 -43 12 -16 4 -17 12 -12 56 6 54 -3 85 -23 72 -7 -4 -11 -33 -10 -75 2 -73 -4 -92 -25 -84 -10 4 -12 -2 -9 -19 3 -14 1 -27 -4 -30 -5 -3 -7 219 -5 526 2 322 -1 595 -7 692 -6 88 -8 192 -3 230 4 39 3 98 -1 133 -7 53 -12 62 -29 62 -18 0 -20 -5 -14 -37z"/><path id="peXtewfX7" d="M13790 3816 c0 -33 2 -36 31 -36 l30 0 -21 30 c-31 44 -40 45 -40 6z"/></g></g><g id="l3UeN3gaNa9GoEIg0vxROre" fill="rgb(152,191,70)" style="transform: none;"><g style="transform: none;"><path id="p13tAG3Naf" d="M13326 6053 c-53 -59 -786 -933 -799 -954 -7 -11 -15 -19 -19 -19 -5 0 -8 144 -8 320 l0 320 -25 0 c-21 0 -25 -5 -25 -29 0 -17 -6 -31 -16 -35 -13 -5 -16 -16 -12 -58 3 -29 11 -54 17 -56 18 -6 15 -332 -3 -332 -14 0 -26 -77 -26 -169 0 -50 -26 -116 -56 -143 -11 -10 -36 -24 -57 -33 -20 -8 -37 -20 -37 -25 0 -6 -13 -10 -30 -10 -25 0 -30 -4 -30 -25 l0 -25 167 2 167 3 274 315 c150 173 323 373 385 443 61 71 116 136 123 145 7 9 16 13 20 9 12 -11 6 -645 -6 -720 -11 -73 -46 -112 -107 -122 -73 -13 -88 -20 -88 -46 l0 -24 228 -3 228 -2 -3 32 c-2 27 -8 33 -33 38 -46 10 -73 28 -89 59 -27 51 -36 229 -36 707 l0 474 -35 0 c-27 0 -42 -8 -69 -37z"/><path id="pmgetyKhh" d="M12224 6055 c-11 -27 4 -44 43 -51 88 -16 121 -55 129 -153 8 -88 12 -101 34 -101 15 0 20 7 20 25 0 20 5 25 24 25 27 0 36 16 36 68 0 75 54 127 142 138 46 6 49 9 46 33 l-3 26 -233 3 c-200 2 -233 0 -238 -13z"/><path id="ptlugGV7f" d="M12780 4244 c-287 -37 -547 -166 -737 -366 -161 -171 -265 -374 -310 -608 -21 -112 -21 -317 1 -433 92 -482 457 -849 946 -953 114 -24 324 -24 443 -1 245 49 450 158 622 331 212 213 326 465 350 776 14 167 -32 402 -109 566 -165 348 -470 589 -848 670 -73 15 -291 26 -358 18z m195 -374 c31 -16 69 -39 85 -50 15 -11 30 -20 33 -20 3 0 35 -18 71 -40 36 -22 68 -40 72 -40 3 0 18 -8 32 -19 15 -10 56 -34 92 -53 36 -18 85 -47 110 -63 25 -15 63 -40 85 -54 54 -35 73 -57 86 -100 7 -23 9 -162 7 -396 l-3 -361 -31 -39 c-30 -38 -189 -137 -414 -258 -41 -22 -104 -58 -140 -80 -107 -66 -130 -77 -153 -77 -12 0 -71 29 -132 65 -60 36 -119 68 -130 71 -11 4 -22 10 -25 14 -5 6 -187 113 -335 197 -33 18 -72 47 -87 63 l-28 30 0 393 0 393 37 35 c80 75 227 154 307 164 l56 7 43 -43 c25 -24 49 -54 56 -66 7 -14 11 -93 11 -225 1 -112 5 -223 10 -248 4 -26 4 -47 -1 -50 -4 -3 -10 -62 -11 -130 l-3 -125 -30 0 -30 0 -5 386 c-6 454 0 429 -107 429 -35 0 -63 -4 -63 -10 0 -5 -8 -10 -18 -10 -10 0 -39 -13 -65 -30 -26 -16 -65 -39 -87 -50 l-40 -20 0 -393 c0 -215 4 -397 8 -402 4 -6 18 -16 32 -23 14 -7 52 -29 85 -50 33 -21 87 -54 120 -72 33 -18 76 -43 95 -55 19 -12 53 -31 75 -42 49 -24 178 -103 185 -113 11 -15 50 -30 78 -30 19 0 68 22 129 58 54 32 125 73 158 91 33 18 101 57 150 86 50 29 122 71 162 94 l72 41 3 388 c4 343 2 390 -12 411 -14 22 -196 133 -387 236 -34 19 -102 59 -151 89 -95 59 -147 71 -172 40 -8 -8 -27 -21 -44 -29 -17 -8 -43 -22 -58 -31 -23 -16 -30 -16 -52 -5 l-25 14 22 17 c37 28 196 120 208 120 4 0 33 -13 64 -30z m290 -506 c51 -33 77 -58 105 -102 25 -38 27 -47 18 -82 -7 -25 -25 -53 -52 -78 -44 -41 -107 -62 -236 -77 -75 -8 -150 -27 -150 -37 0 -4 -11 -8 -24 -8 -28 0 -36 -16 -36 -75 0 -52 28 -85 71 -85 15 0 31 -5 35 -11 10 -17 191 -6 230 14 18 9 44 37 58 62 20 34 33 45 51 45 34 0 33 -27 -3 -76 -46 -63 -91 -92 -167 -105 -140 -24 -248 7 -324 93 -31 35 -33 41 -26 85 14 92 96 143 255 158 36 3 98 13 137 21 84 18 113 44 113 102 0 38 -31 96 -58 108 -9 4 -76 9 -149 12 -124 4 -132 3 -149 -17 -10 -11 -28 -21 -40 -21 -26 0 -50 -26 -65 -68 -9 -26 -16 -32 -39 -32 -27 0 -28 1 -20 36 5 21 25 53 46 75 68 69 136 89 289 85 79 -2 107 -7 130 -22z"/></g></g><g id="l3PyR9KSXXTAXAn9F78TG5P" fill="rgb(153,190,90)" style="transform: none;"><g style="transform: none;"><path id="p1D7HvS5ut" d="M13355 6082 c-18 -13 -80 -85 -68 -78 6 3 14 0 16 -6 3 -7 6 -3 6 9 1 14 6 20 19 18 9 -1 24 6 32 16 8 10 26 20 39 22 39 6 38 27 -1 27 -18 0 -37 -4 -43 -8z"/><path id="p1GcRK6Uhm" d="M12227 6063 c-4 -3 -7 -15 -7 -25 0 -20 27 -34 76 -40 16 -1 32 -7 35 -12 4 -5 12 1 19 14 10 20 10 21 -8 16 -11 -4 -32 -2 -48 4 -43 17 -13 29 65 26 36 -2 72 1 79 7 7 6 63 8 137 5 68 -3 122 -1 119 4 -6 9 -457 11 -467 1z"/><path id="pX0OqMuw8" d="M13405 6039 c-3 -8 -2 -58 3 -110 l9 -94 4 99 c4 94 -3 139 -16 105z"/><path id="pRE54n2oY" d="M12591 6013 c-8 -3 -26 -19 -39 -35 -17 -20 -27 -26 -32 -17 -6 8 -11 6 -19 -9 -15 -28 -14 -55 2 -49 6 2 11 15 9 27 -1 13 1 21 4 17 4 -3 20 5 37 19 16 14 43 28 58 31 16 3 26 9 23 14 -6 10 -21 10 -43 2z"/><path id="pwvQpe9Vg" d="M13315 5982 l-19 -27 24 16 c24 16 38 39 23 39 -4 0 -17 -13 -28 -28z"/><path id="p196VCSCW9" d="M12375 5943 c4 -10 12 -31 18 -48 6 -18 12 -198 14 -452 5 -391 11 -483 29 -385 4 20 10 44 15 52 6 13 9 12 15 -4 7 -19 8 -19 15 0 6 16 8 15 8 -8 1 -16 4 -28 9 -28 4 0 7 180 7 400 0 219 -3 392 -7 382 -5 -13 -7 -14 -8 -2 -1 10 -4 9 -10 -5 -6 -17 -9 -14 -15 18 -4 21 -13 37 -21 37 -8 0 -13 -3 -13 -7 3 -20 -2 -23 -15 -11 -14 15 -31 58 -28 71 1 4 -3 7 -9 7 -7 0 -8 -7 -4 -17z m42 -145 c-2 -13 -4 -5 -4 17 -1 22 1 32 4 23 2 -10 2 -28 0 -40z m70 -511 c-1 -73 -3 -10 -3 138 0 149 2 208 3 132 2 -76 2 -198 0 -270z m-18 311 c0 -31 -1 -31 -10 -10 -5 13 -7 28 -3 33 10 16 14 9 13 -23z"/><path id="p2BrRIdbn" d="M13109 5798 c-24 -29 -36 -47 -26 -39 20 16 81 91 74 91 -2 0 -24 -24 -48 -52z"/><path id="pZ90ubXKv" d="M13409 5748 c-4 -380 -3 -518 2 -544 4 -16 7 118 8 299 0 180 -1 327 -4 327 -3 0 -5 -37 -6 -82z"/><path id="pupDeI3OG" d="M13330 5709 c-9 -5 -10 -9 -3 -9 6 0 13 -15 15 -32 l3 -33 6 38 c6 42 1 50 -21 36z"/><path id="p4IPDcotm" d="M13363 5615 c0 -38 2 -53 4 -32 2 20 2 52 0 70 -2 17 -4 1 -4 -38z"/><path id="pxxZdO9l" d="M13245 5610 c-4 -6 -11 -8 -16 -4 -5 3 -8 0 -7 -7 2 -7 -1 -13 -7 -14 -16 -1 -38 -18 -60 -45 l-20 -25 21 18 c11 9 23 15 25 12 3 -2 23 13 44 35 22 22 36 40 33 40 -4 0 -10 -5 -13 -10z"/><path id="pBnbTLqea" d="M13343 5540 c0 -30 2 -43 4 -27 2 15 2 39 0 55 -2 15 -4 2 -4 -28z"/><path id="p1FoYek7vA" d="M13362 5510 c0 -19 2 -27 5 -17 2 9 2 25 0 35 -3 9 -5 1 -5 -18z"/><path id="pLVcHWjp6" d="M13144 5498 l-29 -33 33 29 c17 17 32 31 32 33 0 8 -8 1 -36 -29z"/><path id="p7y29yyOh" d="M13060 5436 c-44 -45 -60 -66 -52 -66 5 0 17 9 27 20 10 11 21 18 25 15 4 -2 20 10 36 27 16 18 22 27 12 20 -11 -9 -17 -10 -20 -2 -2 7 -14 0 -28 -14z"/><path id="piBSBnWgM" d="M13343 5385 c0 -33 2 -45 4 -27 2 18 2 45 0 60 -2 15 -4 0 -4 -33z"/><path id="p10Z9xwF4Z" d="M13362 5330 c0 -90 2 -107 9 -76 5 22 6 70 0 115 l-8 76 -1 -115z"/><path id="pNu4fPzPM" d="M12774 5398 l-29 -33 33 29 c17 17 32 31 32 33 0 8 -8 1 -36 -29z"/><path id="p10RKgU3tg" d="M13030 5365 c-12 -13 -26 -22 -30 -20 -11 7 -53 -42 -46 -54 4 -7 1 -8 -8 -5 -9 3 -20 -3 -28 -15 -7 -12 -18 -21 -24 -21 -6 0 -11 -7 -11 -15 0 -12 5 -11 22 5 12 11 24 18 27 15 3 -3 33 26 67 65 59 66 81 98 31 45z"/><path id="p1HYOwBRWU" d="M13344 5200 c0 -52 1 -74 3 -47 2 26 2 68 0 95 -2 26 -3 4 -3 -48z"/><path id="prH7Jkugm" d="M12594 5183 c-27 -31 -44 -54 -37 -50 14 9 97 107 90 107 -2 0 -26 -26 -53 -57z"/><path id="p10qpQf3qj" d="M12892 5208 c-14 -14 -22 -18 -22 -9 0 7 -8 3 -19 -10 -10 -13 -16 -29 -14 -36 3 -9 0 -11 -10 -7 -10 3 -34 -18 -73 -67 -33 -40 -74 -88 -91 -106 -34 -34 -45 -56 -16 -32 9 8 19 12 22 10 3 -3 61 59 129 137 116 133 146 171 94 120z m-112 -128 c-23 -27 -44 -50 -47 -50 -6 0 12 23 56 73 42 46 35 30 -9 -23z"/><path id="pkuFTR7Km" d="M13404 5144 c-4 -14 -2 -49 3 -77 l10 -52 2 78 c1 79 -4 96 -15 51z"/><path id="pvEsXvl8d" d="M13380 5093 c0 -10 -5 -25 -10 -33 -8 -12 -12 -13 -19 -2 -5 9 -10 -3 -15 -34 -8 -62 9 -81 24 -26 6 23 14 43 18 46 9 5 15 66 7 66 -3 0 -5 -8 -5 -17z"/><path id="pb14d8TSr" d="M13429 5045 c-2 -33 -3 -76 -2 -95 0 -19 -4 -38 -10 -42 -20 -12 1 -20 23 -8 17 9 21 9 19 -2 -3 -28 2 -40 16 -35 8 4 17 1 21 -5 4 -7 3 -8 -4 -4 -7 4 -12 2 -12 -4 0 -6 -4 -8 -10 -5 -6 3 -7 -1 -3 -10 3 -9 9 -13 12 -8 13 19 38 20 60 2 22 -18 22 -19 3 -19 -11 0 -22 -7 -26 -15 -4 -12 3 -15 32 -15 20 0 43 4 50 9 23 14 9 45 -23 54 -103 31 -121 54 -134 179 l-8 83 -4 -60z"/><path id="pIVjjlbMB" d="M12397 4969 c-15 -59 -72 -104 -150 -117 -38 -7 -42 -10 -45 -40 -3 -31 -2 -32 35 -32 28 0 34 3 23 10 -12 8 -9 10 12 10 21 0 26 4 21 16 -4 12 0 14 22 8 23 -6 27 -4 22 9 -3 9 5 30 18 49 38 52 57 88 52 101 -2 7 -7 0 -10 -14z"/><path id="p2e0LQCvI" d="M12635 4910 c-10 -11 -21 -18 -25 -15 -16 10 -55 -40 -52 -66 2 -12 -33 -37 -58 -42 -22 -5 -21 -5 4 -4 22 2 44 19 94 75 35 39 62 72 60 72 -3 0 -13 -9 -23 -20z"/><path id="p7zXE9zSY" d="M13350 4910 c-8 -5 -18 -6 -22 -4 -5 3 -22 -6 -38 -20 -17 -14 -47 -28 -68 -31 -64 -11 -87 -21 -90 -39 -2 -10 2 -23 9 -30 8 -7 10 -7 6 0 -4 6 5 16 19 23 31 14 77 15 69 1 -3 -5 1 -10 9 -10 14 0 21 18 17 42 -2 14 49 40 69 35 10 -3 24 1 31 9 15 18 8 36 -11 24z"/><path id="peUMR8T2m" d="M12765 4241 c-99 -12 3 -20 170 -13 126 5 148 8 105 13 -66 8 -206 8 -275 0z"/><path id="pm9bXtfjX" d="M12605 4210 c-208 -54 -411 -174 -555 -326 l-65 -69 68 65 c37 35 67 60 67 55 0 -5 7 0 15 13 37 52 232 160 387 212 51 18 95 36 96 41 2 5 19 9 37 9 19 0 37 5 40 10 8 14 -9 12 -90 -10z"/><path id="p18hsYaALs" d="M13105 4220 c-5 -8 47 -16 78 -11 4 0 7 -3 7 -9 0 -5 17 -10 38 -9 l37 0 -42 13 c-68 22 -111 27 -118 16z"/><path id="p1EXLWKgzc" d="M13465 4103 c6 -6 33 -23 60 -38 28 -16 46 -24 40 -18 -5 6 -32 23 -60 38 -27 16 -45 24 -40 18z"/><path id="p2Kl6rbDE" d="M5046 4038 c-2 -18 -9 -66 -15 -106 -9 -57 -8 -90 4 -160 8 -48 16 -100 17 -117 3 -21 7 -9 17 42 7 41 23 88 36 107 22 33 23 35 7 90 -8 31 -20 56 -26 56 -7 0 -10 21 -8 60 3 49 1 60 -12 60 -9 0 -17 -12 -20 -32z m34 -189 c0 -11 -4 -17 -10 -14 -5 3 -10 15 -10 26 0 11 5 17 10 14 6 -3 10 -15 10 -26z"/><path id="pDL1sVstU" d="M12850 3917 c-77 -41 -200 -118 -233 -146 -17 -14 -14 -17 39 -43 65 -33 96 -31 154 8 19 13 39 24 44 24 5 0 20 10 32 21 l23 21 106 -66 c59 -36 108 -66 111 -66 15 0 393 -224 409 -243 19 -22 20 -34 17 -384 l-2 -362 -73 -42 c-39 -23 -112 -65 -162 -94 -49 -29 -117 -68 -150 -86 -33 -18 -104 -59 -158 -91 -86 -50 -101 -56 -120 -46 -12 6 -24 14 -27 18 -7 10 -136 89 -185 113 -22 11 -56 30 -75 42 -19 12 -62 37 -95 55 -33 18 -87 51 -120 72 -33 21 -71 43 -85 50 -14 7 -28 17 -32 23 -4 5 -8 173 -8 372 l0 363 40 20 c22 11 60 33 86 49 25 17 52 27 60 24 8 -3 17 2 20 11 9 24 67 21 90 -5 18 -20 19 -45 24 -407 l5 -387 50 -7 c31 -4 54 -3 62 4 9 7 13 46 13 135 0 86 3 122 11 118 7 -5 10 9 8 43 -3 52 11 82 37 82 8 0 14 5 14 10 0 6 -16 10 -35 10 l-36 0 2 208 c2 225 1 228 -55 290 -51 56 -72 62 -157 50 -132 -20 -354 -157 -360 -223 -4 -37 1 -55 14 -55 14 0 37 54 37 88 0 17 6 22 26 22 14 0 69 25 122 55 107 61 161 80 201 70 49 -12 93 -48 112 -89 17 -38 19 -72 19 -408 l0 -368 -25 0 -24 0 -3 386 -3 386 -29 25 c-27 22 -36 25 -95 21 -59 -4 -76 -10 -166 -64 l-100 -60 -3 -401 c-2 -340 0 -404 12 -416 8 -8 156 -96 329 -196 203 -117 324 -181 342 -181 17 0 83 32 164 79 75 43 222 128 326 188 l190 109 3 407 2 407 -37 24 c-21 13 -146 86 -278 161 -132 76 -257 149 -277 162 -61 38 -124 32 -208 -18 -49 -29 -73 -38 -85 -32 -12 7 9 23 92 71 l107 62 61 -34 c173 -96 594 -341 622 -362 19 -14 37 -40 43 -62 8 -25 10 -156 8 -397 -3 -351 -4 -361 -25 -390 -13 -19 -89 -69 -204 -135 -100 -58 -250 -144 -333 -192 -83 -49 -160 -88 -171 -88 -11 0 -56 21 -100 47 -44 26 -195 113 -335 194 -186 107 -260 154 -275 177 -25 39 -55 43 -55 7 0 -34 43 -77 115 -118 130 -73 330 -190 335 -196 3 -3 32 -20 65 -37 33 -17 93 -50 133 -74 61 -35 82 -42 122 -41 50 1 64 7 180 78 36 22 99 58 140 80 225 121 384 220 414 258 l31 39 5 396 c6 499 23 445 -180 575 -25 16 -74 45 -110 63 -36 19 -77 43 -92 53 -14 11 -29 19 -32 19 -4 0 -36 18 -72 40 -36 22 -68 40 -71 40 -3 0 -18 9 -33 20 -100 71 -186 95 -240 67z"/><path id="pkBFOtDCf" d="M13892 3710 c8 -14 27 -46 42 -72 15 -27 30 -48 33 -48 7 0 -45 92 -69 120 l-20 25 14 -25z"/><path id="p1FKvwOiG5" d="M14000 3480 c-14 -9 -7 -14 13 -11 5 1 6 -12 2 -29 -5 -23 -3 -30 9 -30 19 0 20 15 3 52 -9 21 -15 25 -27 18z"/><path id="p037WAq9v" d="M13070 3420 c-138 -10 -182 -24 -242 -80 -41 -37 -51 -54 -62 -102 -7 -31 -10 -61 -7 -66 3 -5 30 -11 60 -14 l53 -5 15 36 c20 48 42 71 67 71 12 0 30 10 40 21 17 20 25 21 119 17 56 -3 110 -9 119 -13 10 -4 27 -23 39 -42 22 -35 22 -35 2 -61 -24 -33 -77 -49 -203 -63 -137 -15 -198 -35 -242 -78 -27 -28 -38 -48 -43 -84 -4 -26 -11 -50 -16 -53 -31 -19 43 -111 129 -161 45 -27 53 -28 190 -29 78 0 142 3 142 8 0 4 8 8 19 8 17 0 96 69 131 115 16 21 21 54 14 93 -3 16 -11 22 -30 22 -24 0 -26 -2 -20 -34 5 -28 1 -41 -26 -77 -19 -24 -55 -54 -83 -68 -43 -23 -62 -26 -150 -26 -90 0 -106 3 -161 29 -53 26 -64 36 -83 79 -20 43 -22 55 -12 88 23 76 92 109 282 134 181 23 209 39 209 117 0 55 -13 88 -35 88 -8 0 -15 7 -15 15 0 23 -45 30 -185 29 -167 -1 -201 -16 -230 -101 -14 -40 -23 -47 -43 -34 -36 22 58 135 134 162 24 9 81 14 149 14 98 0 116 -3 166 -26 98 -46 138 -125 103 -205 -26 -61 -104 -92 -289 -115 -163 -20 -195 -39 -195 -115 0 -56 12 -79 50 -99 36 -19 130 -20 130 -2 0 14 -45 37 -75 37 -26 0 -65 35 -65 58 0 24 16 46 28 38 13 -8 44 3 37 14 -7 11 99 33 169 34 35 1 60 3 55 7 -5 3 19 11 52 18 49 10 71 21 105 53 24 23 44 48 44 55 0 8 3 12 8 10 4 -3 8 20 10 50 2 44 -3 64 -22 97 -36 61 -115 126 -155 126 -11 0 -23 5 -26 10 -3 6 -16 9 -28 8 -12 0 -69 -4 -127 -8z"/><path id="plOqX7hNN" d="M14035 3378 c-5 -20 -1 -32 14 -47 l22 -22 -7 28 c-4 16 -10 37 -14 48 -7 18 -8 18 -15 -7z"/><path id="pgyREbPwa" d="M14070 3196 c0 -14 5 -28 10 -31 6 -4 10 7 10 24 0 17 -4 31 -10 31 -5 0 -10 -11 -10 -24z"/><path id="p87shoIZd" d="M11713 3060 c0 -30 2 -43 4 -27 2 15 2 39 0 55 -2 15 -4 2 -4 -28z"/><path id="pFwnHwo6n" d="M14092 3010 c0 -19 2 -27 5 -17 2 9 2 25 0 35 -3 9 -5 1 -5 -18z"/><path id="pN0FLy5Et" d="M13255 2916 c-34 -53 -57 -68 -122 -81 -56 -11 -41 -35 21 -35 66 0 108 26 147 90 34 55 35 66 8 73 -16 4 -27 -5 -54 -47z"/><path id="pkM7gCVLA" d="M14073 2914 c-15 -15 -18 -84 -4 -84 7 0 25 90 19 96 -2 1 -9 -4 -15 -12z"/><path id="paZGEGliR" d="M11790 2635 c0 -14 86 -187 105 -210 9 -11 -3 17 -25 62 -23 46 -43 89 -44 96 -2 15 -36 65 -36 52z"/><path id="pDRZMVArZ" d="M14003 2633 c-18 -6 -53 -90 -46 -109 3 -8 1 -14 -6 -12 -6 2 -26 -22 -46 -52 -19 -30 -44 -70 -56 -87 -12 -18 -25 -33 -30 -33 -5 0 -9 -6 -9 -13 0 -8 -9 -22 -20 -32 -12 -10 -19 -24 -16 -31 6 -17 -29 -47 -59 -50 -31 -3 -52 -23 -57 -54 -1 -13 -11 -28 -22 -34 -10 -6 -33 -24 -50 -40 l-31 -29 46 31 c77 52 202 174 187 183 -12 8 -5 13 14 10 13 -1 58 61 52 71 -4 6 -2 8 3 5 14 -9 46 40 37 55 -4 6 -3 8 4 4 6 -3 13 -2 17 4 3 5 1 10 -5 10 -6 0 -8 5 -5 10 4 6 10 8 15 5 10 -6 83 132 75 145 -3 6 -2 10 3 10 9 0 26 30 20 35 -2 1 -9 0 -15 -2z"/><path id="pI3FLknCH" d="M12030 2245 c19 -19 36 -35 39 -35 3 0 -10 16 -29 35 -19 19 -36 35 -39 35 -3 0 10 -16 29 -35z"/><path id="p13Jb20D2R" d="M13524 2045 c-12 -8 -24 -11 -28 -8 -3 3 -6 2 -6 -3 0 -6 -27 -23 -60 -39 -33 -16 -58 -30 -56 -32 5 -5 134 60 161 81 25 20 16 21 -11 1z"/><path id="pVtJoT9Zr" d="M12500 1937 c69 -28 80 -30 74 -13 -3 8 -13 14 -22 14 -9 0 -33 3 -52 6 l-35 6 35 -13z"/><path id="pGErXK30F" d="M12610 1900 c34 -11 60 -11 35 0 -11 5 -29 8 -40 8 -16 0 -15 -2 5 -8z"/></g></g><g id="l2UOXoJkrVhBvXw8X8qlggV" fill="rgb(197,125,114)" style="transform: none;"><g style="transform: none;"><path id="p1EEuGPXG4" d="M7149 6058 c-4 -44 10 -58 61 -58 46 0 102 -29 117 -60 16 -32 18 -965 3 -1022 -9 -30 -18 -39 -53 -52 -23 -8 -53 -17 -66 -18 -17 -2 -27 -11 -32 -30 -4 -15 -4 -29 -1 -32 3 -3 211 -6 463 -6 l457 0 6 73 c3 39 7 106 8 147 l3 75 -33 0 c-31 0 -35 -3 -52 -53 -50 -140 -78 -156 -288 -157 -125 0 -154 3 -162 15 -5 8 -10 118 -10 248 l0 232 135 0 c177 0 196 -7 225 -89 20 -55 25 -61 51 -61 l28 0 3 186 c2 102 -1 192 -5 200 -4 8 -18 14 -31 14 -20 0 -27 -9 -42 -57 -30 -90 -46 -97 -217 -98 l-142 0 0 226 c0 249 4 268 59 291 42 18 288 18 338 0 52 -18 103 -75 145 -159 32 -65 39 -73 64 -73 15 0 30 4 33 8 5 9 -31 196 -54 281 l-11 41 -499 0 c-393 0 -500 -3 -501 -12z"/><path id="p3X31jwQy" d="M7456 4234 c-775 -140 -1207 -979 -870 -1691 168 -355 509 -610 897 -669 212 -33 457 -1 659 86 200 86 405 262 528 452 299 462 235 1091 -149 1477 -104 105 -196 172 -326 236 -120 60 -240 98 -359 114 -105 15 -284 12 -380 -5z"/></g></g><g id="l51rZCSplNZL2tBpI511be0" fill="rgb(111,207,239)" style="transform: none;"><g style="transform: none;"><path id="pJ8LD9SiN" d="M10805 6079 c-195 -18 -253 -68 -419 -359 -43 -74 -87 -146 -99 -159 -29 -31 -77 -51 -127 -51 l-40 0 0 205 c0 264 2 267 133 291 34 6 38 9 35 33 l-3 26 -282 3 -283 2 0 -29 c0 -29 18 -41 63 -41 37 0 85 -31 98 -63 20 -48 20 -991 0 -1027 -21 -37 -41 -49 -94 -56 -40 -6 -50 -11 -58 -32 -6 -16 -6 -29 0 -35 5 -5 148 -7 357 -4 360 4 400 9 481 51 54 27 103 76 131 130 24 45 27 62 27 151 0 92 -2 104 -30 154 -33 60 -88 112 -157 147 -27 13 -48 29 -48 35 0 17 75 142 176 295 102 154 184 247 238 269 35 15 42 28 30 59 -7 17 -8 17 -129 5z m-499 -652 c67 -17 114 -55 150 -119 27 -50 29 -60 29 -163 0 -105 -2 -113 -31 -165 -36 -65 -94 -105 -169 -119 -59 -11 -143 0 -156 20 -5 8 -9 137 -9 287 l0 272 68 0 c37 0 90 -6 118 -13z"/><path id="p9w7CI0r4" d="M9795 3944 c-116 -60 -161 -222 -121 -435 9 -47 16 -91 16 -97 0 -13 -3 -15 -124 -62 -305 -119 -382 -328 -181 -491 44 -35 195 -110 263 -130 23 -7 42 -17 42 -23 0 -6 -7 -49 -15 -96 -34 -192 -6 -345 74 -413 104 -87 265 -50 456 105 l86 70 48 -45 c67 -63 177 -133 243 -157 150 -53 271 3 314 146 18 62 18 229 -1 319 -8 38 -11 72 -7 76 4 3 36 16 72 29 151 54 259 126 312 209 40 64 40 148 0 212 -53 83 -164 158 -312 209 -36 13 -68 26 -73 30 -4 3 0 42 9 85 11 54 15 113 12 194 -3 106 -6 121 -33 170 -20 36 -45 64 -75 83 -41 27 -51 29 -121 26 -96 -4 -187 -47 -309 -146 l-86 -69 -44 39 c-67 60 -184 134 -246 157 -66 25 -157 27 -199 5z m194 -99 c63 -30 164 -100 204 -143 l29 -30 -64 -77 c-116 -143 -100 -132 -223 -150 -60 -8 -119 -18 -131 -21 -19 -5 -22 1 -35 58 -8 35 -14 110 -14 168 0 164 34 219 135 220 28 0 66 -10 99 -25z m773 5 c43 -33 60 -93 59 -200 -1 -105 -21 -225 -36 -225 -6 0 -67 9 -138 19 l-127 19 -39 52 c-21 28 -57 73 -80 99 -23 26 -41 54 -41 61 0 21 145 133 215 167 74 35 149 38 187 8z m-418 -306 c26 -31 46 -60 46 -65 0 -5 -47 -9 -105 -9 -58 0 -105 3 -105 8 0 14 94 122 106 122 7 0 33 -25 58 -56z m127 -176 c32 -27 179 -284 179 -314 0 -25 -129 -251 -166 -291 l-31 -33 -166 0 c-142 0 -168 2 -185 18 -22 18 -111 162 -157 251 l-27 55 22 45 c35 72 130 234 153 259 20 21 27 22 192 22 122 0 176 -4 186 -12z m-491 -12 c0 -2 -24 -45 -54 -96 -51 -87 -55 -91 -66 -70 -22 42 -50 134 -43 141 13 12 163 35 163 25z m729 -12 c32 -4 51 -11 51 -20 0 -29 -53 -155 -62 -146 -14 14 -98 164 -98 175 0 5 13 7 29 4 15 -3 51 -9 80 -13z m-973 -81 c9 -27 30 -81 47 -121 34 -84 33 -90 -20 -227 -28 -70 -45 -101 -58 -103 -10 -2 -49 8 -88 23 -194 77 -285 174 -247 266 26 61 142 139 282 189 29 10 56 19 60 19 3 1 14 -20 24 -46z m1243 4 c164 -67 254 -159 231 -236 -21 -73 -135 -157 -279 -206 -39 -13 -72 -21 -75 -17 -2 4 -25 61 -51 126 l-48 119 18 46 c10 25 30 78 44 116 14 39 30 76 34 83 10 15 23 12 126 -31z m-1054 -414 c28 -48 52 -91 54 -96 3 -9 -71 -1 -132 15 -23 5 -37 14 -34 21 2 7 14 42 27 80 13 37 26 67 29 67 3 0 29 -39 56 -87z m816 -1 c12 -35 17 -67 13 -72 -9 -8 -154 -33 -159 -28 -2 3 43 84 96 172 14 24 21 14 50 -72z m-798 -188 c114 -16 98 -5 216 -149 l65 -79 -47 -42 c-102 -92 -221 -154 -296 -154 -107 0 -155 142 -120 349 15 89 24 104 56 97 13 -4 70 -13 126 -22z m864 -39 c17 -80 19 -230 4 -284 -42 -149 -194 -133 -403 42 -27 22 -48 46 -48 54 0 7 24 42 53 76 28 35 66 80 82 100 30 37 32 37 145 53 63 8 117 18 119 20 3 3 12 3 20 2 10 -2 20 -25 28 -63z m-455 -47 c-27 -35 -56 -64 -63 -65 -12 -2 -99 93 -107 117 -2 6 41 10 108 10 l112 0 -50 -62z"/><path id="p18o1YSkmr" d="M10215 3226 c-56 -24 -115 -112 -115 -171 0 -62 53 -138 115 -166 78 -36 168 -13 221 56 52 69 42 189 -23 247 -49 44 -139 60 -198 34z"/></g></g><g id="l59bvMMxBKaiGCtMM1fjsBA" fill="rgb(255,253,252)" style="transform: none;"><g style="transform: none;"><path id="pjXwBeODJ" d="M5063 4103 c-7 -2 -13 -22 -13 -43 0 -21 -5 -74 -12 -117 -14 -95 -14 -92 4 -178 13 -64 15 -67 23 -40 4 17 19 50 32 74 23 39 24 48 14 81 -6 21 -11 81 -11 134 0 97 -3 103 -37 89z"/><path id="psF1LYfCt" d="M12750 3848 c-68 -40 -125 -78 -127 -85 -4 -11 76 -53 101 -53 6 0 46 20 88 45 43 25 86 45 98 45 11 0 37 -10 58 -23 20 -13 145 -86 277 -162 132 -75 257 -148 278 -161 l37 -24 -2 -378 -3 -377 -300 -173 c-165 -95 -311 -179 -325 -186 -25 -14 -39 -7 -345 170 -176 102 -323 190 -327 197 -4 7 -7 178 -5 382 l2 369 100 59 c120 71 159 80 201 44 l29 -25 3 -386 3 -386 54 0 55 0 0 398 c0 393 0 398 -22 442 -39 76 -136 109 -238 80 -64 -18 -253 -133 -277 -169 l-23 -34 0 -402 c0 -401 0 -402 23 -435 16 -24 89 -71 277 -179 140 -81 288 -166 328 -190 132 -77 146 -76 329 31 71 41 217 126 326 189 126 72 207 125 220 144 22 29 22 38 25 420 2 262 0 402 -8 427 -16 54 9 39 -635 407 -54 31 -101 51 -120 51 -20 0 -73 -25 -155 -72z"/><path id="pboQbNOkq" d="M7073 3562 c-183 -65 -273 -228 -274 -495 0 -97 4 -136 21 -192 65 -210 221 -335 420 -335 240 0 403 172 426 451 l7 79 -417 0 -416 0 0 53 c0 69 24 165 55 228 37 71 88 124 153 156 53 26 66 28 182 28 140 0 184 -13 265 -79 44 -36 98 -128 110 -186 14 -70 50 -84 43 -17 -14 119 -101 231 -226 290 -61 29 -77 32 -182 35 -92 2 -126 -1 -167 -16z m553 -547 c11 -29 -19 -157 -52 -225 -83 -165 -245 -240 -433 -199 -150 32 -281 198 -298 375 l-6 64 392 0 c335 0 392 -2 397 -15z"/><path id="pXuNgzbKt" d="M7680 3551 c0 -5 21 -36 48 -69 111 -142 327 -424 330 -433 2 -6 -75 -115 -172 -244 -97 -128 -176 -236 -176 -239 0 -3 9 -6 19 -6 24 0 42 21 221 263 l139 187 83 -107 c47 -60 113 -146 148 -193 76 -103 119 -150 137 -150 23 0 15 15 -70 126 -45 60 -124 164 -175 230 -50 67 -92 124 -92 128 0 3 31 45 68 94 312 399 325 417 302 420 -12 2 -26 0 -30 -5 -4 -4 -88 -111 -185 -238 -98 -126 -181 -230 -185 -230 -7 0 -181 221 -316 400 -35 47 -64 75 -75 75 -11 0 -19 -4 -19 -9z"/><path id="pVs6u0t5Q" d="M12947 3400 c-75 -19 -144 -74 -166 -133 -16 -43 -14 -94 5 -101 34 -13 85 -6 90 12 28 89 63 116 165 126 112 11 178 -1 216 -39 40 -40 43 -76 7 -104 -27 -22 -73 -32 -232 -55 -172 -24 -232 -68 -240 -173 -5 -85 25 -138 103 -178 52 -26 70 -30 165 -33 142 -5 205 12 265 73 47 47 75 117 57 145 -5 8 -27 16 -49 18 -39 3 -42 1 -64 -40 -40 -71 -76 -88 -186 -88 -101 0 -143 13 -164 51 -16 31 -3 66 31 84 16 8 64 20 107 26 206 29 297 57 326 102 30 46 38 92 27 143 -15 67 -52 112 -119 143 -50 23 -70 26 -181 28 -69 1 -142 -2 -163 -7z"/></g></g></svg>