<svg width="440" height="142" viewBox="0 0 440 142" fill="none" xmlns="http://www.w3.org/2000/svg">
<g clip-path="url(#clip0_89_561)">
<path d="M13.9624 84.1059C4.56846 75.3307 0 60.2018 0 47.6372C0 35.0726 3.91174 23.0066 13.3199 13.1487C19.9727 6.06862 31.7223 0 45.9559 0C57.8339 0 67.6275 4.38764 72.3245 7.10855C74.0519 8.17697 74.6943 8.02026 74.9656 7.10855L75.9935 3.33347C76.2648 2.56421 76.5075 2.56421 77.7067 2.56421C78.9059 2.56421 79.1486 2.86336 79.1486 4.6868C79.1486 7.10855 81.7469 26.3258 82.4179 29.9585C82.5607 30.5568 82.4179 31.1693 81.9039 31.2833L79.9338 31.7677C79.2914 31.9101 79.0201 31.7677 78.6347 30.6992C76.8073 26.4683 73.9377 20.1433 68.4555 14.5305C62.9591 8.91774 56.0493 4.5301 45.7417 4.5301C22.3141 4.54434 12.9202 25.2574 13.0487 44.318C13.0487 51.8824 15.39 66.5554 25.5834 77.7524C34.4776 87.6958 41.9156 88.7073 50.6528 88.7073C65.4147 88.7073 76.9072 80.63 82.9176 72.1539C83.303 71.5413 83.56 71.3989 83.974 71.7835L85.6587 73.0656C86.0298 73.3648 86.3154 73.6212 85.9014 74.2765C78.0779 85.6302 65.4147 96.172 46.998 96.172C31.5938 96.172 21.8001 91.3712 13.9624 84.1202V84.1059Z" fill="white"/>
<path d="M109.4 39.6312C109.4 36.4544 109.001 13.0062 108.886 11.0403C108.615 7.90628 107.316 6.65267 102.334 6.65267H94.767C94.1246 6.65267 93.7391 6.35351 93.7391 5.88341V2.29352C93.7391 1.80917 94.1246 1.51001 94.6528 1.51001C96.1947 1.51001 102.862 1.95162 114.997 1.95162C127.132 1.95162 130.801 1.51001 132.628 1.51001C133.299 1.51001 133.542 1.95162 133.542 2.42173V5.75519C133.542 6.35351 133.156 6.66691 132.485 6.66691H126.361C123.762 6.66691 121.792 7.72109 121.792 10.2995C121.792 11.5959 121.407 40.3862 121.407 41.9105V51.9964C121.407 53.2642 121.792 83.3509 121.792 84.8467C121.792 88.807 123.762 89.5335 127.945 89.5335H133.313C133.927 89.5335 134.327 89.7187 134.327 90.4452V93.7787C134.327 94.32 133.927 94.5337 133.156 94.5337C131.572 94.5337 126.361 94.2203 114.997 94.2203C102.605 94.2203 96.9942 94.5337 95.5522 94.5337C94.8812 94.5337 94.4958 94.32 94.4958 93.7787V90.2885C94.4958 89.7044 94.8812 89.5192 95.5522 89.5192H102.848C105.474 89.5192 108.201 89.0776 108.744 85.7442C108.986 83.7925 109.372 55.6575 109.372 48.6914V39.617L109.4 39.6312Z" fill="white"/>
<path d="M158.497 18.9039C158.497 11.197 154.571 6.89484 149.874 6.80937L144.549 6.66691C143.878 6.66691 143.735 6.08284 143.735 5.75519V2.29352C143.735 1.80917 143.878 1.51001 144.549 1.51001C145.177 1.51001 146.219 1.65247 148.189 1.65247C150.16 1.80917 153.043 1.95162 157.455 1.95162C161.866 1.95162 164.65 1.65247 166.235 1.65247C167.82 1.65247 168.962 2.1938 170.018 3.3192C170.632 4.1312 195.987 36.9815 197.415 38.8192C198.842 40.6569 220.928 67.5953 224.069 71.7692H224.597V56.27C224.597 44.6171 224.44 38.2636 224.197 31.7676C224.054 26.682 223.383 13.9179 222.613 11.6814C221.556 8.46185 219.072 6.65267 215.403 6.65267H211.234C210.706 6.65267 210.478 6.35351 210.478 5.74095V2.29352C210.478 1.80917 210.706 1.51001 211.234 1.51001C213.047 1.51001 217.216 1.95162 225.611 1.95162C233.448 1.95162 236.561 1.51001 238.288 1.51001C239.202 1.51001 239.302 1.95162 239.302 2.42173V5.75519C239.302 6.19681 239.045 6.66691 238.517 6.66691H235.019C231.464 6.66691 230.193 8.83224 229.908 13.7755C229.394 22.5507 229.394 35.4145 229.394 43.8764V92.582C229.394 94.4197 229.28 95.7446 228.737 95.7446C227.152 95.7446 226.01 94.2203 225.611 93.622C225.496 93.394 217.759 83.7925 209.664 73.6069C200.555 62.2817 191.005 50.2299 190.248 49.4464C188.806 48.1928 164.779 18.1061 163.979 17.0804H163.194V45.9705C163.194 58.0792 164.25 79.3052 164.479 81.9691C165.007 86.955 165.807 89.5192 169.319 89.5192H173.259C174.173 89.5192 174.287 89.8326 174.287 90.6304V93.4795C174.287 94.3058 174.158 94.5194 173.259 94.5194C171.945 94.5194 164.093 94.206 160.596 94.206C157.826 94.206 148.832 94.5194 147.504 94.5194C146.99 94.5194 146.876 94.3058 146.876 93.6077V90.2742C146.876 89.8326 146.99 89.505 147.647 89.505H152.101C155.884 89.505 157.312 87.8525 157.94 81.499C158.226 79.0772 158.469 64.2048 158.469 40.956V18.9039H158.497Z" fill="white"/>
<path d="M263.329 34.3319C263.329 30.9984 262.943 12.5076 262.715 10.2853C262.33 7.10856 260.588 6.6527 257.104 6.6527H249.909C249.224 6.6527 248.853 6.496 248.853 5.74099V2.20808C248.853 1.66675 249.224 1.52429 249.766 1.52429C251.494 1.52429 257.204 1.96591 268.968 1.96591C272.366 1.96591 285.429 1.52429 288.413 1.52429C305.245 1.52429 319.364 3.49018 330.857 13.3196C339.351 20.5849 345.347 31.383 345.347 46.4691C345.347 61.5552 341.05 71.3989 332.441 80.7725C319.878 94.5337 301.89 94.5337 291.825 94.5337C283.587 94.5337 273.679 94.2203 267.797 94.2203C256.433 94.2203 251.194 94.5337 249.381 94.5337C248.724 94.5337 248.467 94.32 248.467 93.622V90.2885C248.467 89.7045 248.853 89.5193 249.524 89.5193H258.247C260.745 89.5193 262.187 88.4651 262.415 86.3425C262.829 83.6216 263.329 54.2757 263.329 44.1471V34.3034V34.3319ZM275.364 47.0389C275.364 48.7057 275.492 70.8576 275.592 78.9633C275.592 81.5275 276.135 83.6501 277.848 86.2285C279.918 88.9494 285.143 90.4595 291.653 90.4595C304.988 90.4595 315.823 84.7185 322.348 76.3848C327.816 69.6039 331.884 58.8485 331.884 47.0532C331.884 36.9103 327.43 25.1292 321.177 18.2344C314.396 10.7839 302.875 5.76948 288.384 5.76948C285.515 5.76948 280.189 5.76948 277.934 7.00884C276.121 8.19123 275.578 10.2996 275.478 13.1772C275.35 18.619 275.35 35.7137 275.35 37.8363V47.0674L275.364 47.0389Z" fill="white"/>
<path d="M398.356 69.9316C398.356 75.0172 398.741 83.4934 398.87 84.9322C399.269 89.0919 401.225 89.5335 404.594 89.5335H409.705C410.619 89.5335 410.619 89.8469 410.619 90.4452V93.394C410.619 94.2203 410.619 94.5337 409.705 94.5337C408.135 94.5337 403.053 94.2203 392.074 94.2203C380.324 94.2203 376.27 94.5337 374.842 94.5337C374.328 94.5337 374.057 94.2203 374.057 93.4938V90.4594C374.057 89.8611 374.186 89.5477 374.971 89.5477H381.381C384.764 89.5477 385.807 88.1944 385.949 86.2285C386.078 84.4193 386.335 74.134 386.335 62.0253V54.4609C384.65 51.0704 362.979 14.3595 359.195 9.7582C357.468 7.8208 354.498 6.66691 352.385 6.66691H349.116C348.345 6.66691 348.202 6.21105 348.202 5.75519V2.29352C348.202 1.80917 348.331 1.51001 349.116 1.51001C350.315 1.51001 356.454 1.95162 364.406 1.95162C377.855 1.95162 382.552 1.51001 383.851 1.51001C384.65 1.51001 384.764 1.80917 384.764 2.1938V5.44179C384.764 6.0686 384.65 6.65267 383.851 6.65267H379.553C375.642 6.65267 375.099 7.80656 375.642 10.8836C376.013 13.0062 392.088 41.2837 396.014 48.6914C400.811 41.127 419.113 14.0461 419.627 11.6671C420.156 9.50178 420.812 6.63842 415.33 6.63842H411.79C411.019 6.63842 410.876 6.18256 410.876 5.42755V2.29352C410.876 1.80917 411.019 1.51001 411.79 1.51001C413.089 1.51001 418.457 1.95162 427.194 1.95162C434.918 1.95162 437.787 1.51001 438.958 1.51001C439.871 1.51001 440.014 1.80917 440.014 2.29352V5.44179C440.014 6.19681 439.886 6.65267 438.958 6.65267H435.688C433.733 6.65267 431.52 7.40768 429.307 9.51603C426.68 11.9378 403.309 45.6713 398.356 52.8938V69.9173V69.9316Z" fill="white"/>
<path d="M45.0708 120.817V141.758H42.8865V124.976L35.477 136.53H34.0065L26.6684 124.976V141.758H24.4841V120.817H26.4971L34.7774 133.851L43.0863 120.817H45.0993H45.0708Z" fill="white"/>
<path d="M91.0552 135.689H82.575L80.2908 141.758H77.8923L85.8015 120.817H87.7859L95.7236 141.758H93.3252L91.0409 135.689H91.0552ZM90.2415 133.538L86.7866 124.264L83.3745 133.538H90.2415Z" fill="white"/>
<path d="M133.699 133.795V141.744H131.515V133.823L124.234 120.817H126.718L132.6 131.316L138.51 120.817H140.994L133.713 133.795H133.699Z" fill="white"/>
<path d="M191.761 131.316C191.761 137.213 187.507 142 181.596 142C175.686 142 171.403 137.213 171.403 131.316C171.403 125.418 175.686 120.632 181.596 120.632C187.507 120.632 191.761 125.418 191.761 131.316ZM189.548 131.316C189.548 126.586 186.308 122.768 181.611 122.768C176.914 122.768 173.644 126.6 173.644 131.316C173.644 136.031 176.885 139.877 181.611 139.877C186.336 139.877 189.548 136.045 189.548 131.316Z" fill="white"/>
<path d="M237.517 141.758L233.02 133.809H227.21V141.758H225.054V120.817H232.906C236.832 120.817 239.502 123.78 239.502 127.313C239.502 130.062 237.817 132.455 235.276 133.381L240.016 141.758H237.531H237.517ZM227.21 131.643H232.906C235.576 131.643 237.246 129.635 237.246 127.313C237.246 124.991 235.561 122.982 232.906 122.982H227.21V131.658V131.643Z" fill="white"/>
<path d="M274.936 120.817V141.758H272.78V120.817H274.936Z" fill="white"/>
<path d="M323.833 135.917C323.833 139.949 320.021 141.986 316.195 141.986C311.455 141.986 308.642 139.749 307.772 137.384L309.842 136.672C310.684 138.681 312.954 139.849 316.138 139.849C318.35 139.849 321.648 138.866 321.648 135.931C321.648 133.652 319.878 133.025 315.766 132.285C311.655 131.544 308.328 130.404 308.3 126.544C308.271 123.466 310.613 120.617 315.766 120.617C319.45 120.617 322.177 122.555 322.962 125.105L320.892 125.817C320.349 123.58 318.079 122.768 315.766 122.768C312.497 122.768 310.456 124.051 310.456 126.529C310.456 128.623 312.169 129.464 316.123 130.148C319.992 130.774 323.833 131.786 323.833 135.917Z" fill="white"/>
<path d="M369.903 122.968H363.393V141.758H361.237V122.968H354.698V120.817H369.888V122.968H369.903Z" fill="white"/>
<path d="M412.147 135.689H403.667L401.382 141.758H398.984L406.893 120.817H408.877L416.815 141.758H414.417L412.132 135.689H412.147ZM411.333 133.538L407.892 124.264L404.48 133.538H411.347H411.333Z" fill="white"/>
</g>
<defs>
<clipPath id="clip0_89_561">
<rect width="440" height="142" fill="white"/>
</clipPath>
</defs>
</svg>
