<svg width="88" height="87" viewBox="0 0 88 87" fill="none" xmlns="http://www.w3.org/2000/svg">
<g clip-path="url(#clip0_89_553)">
<path d="M87.6029 44.0098C87.6029 65.7199 71.6747 83.718 50.8817 86.9841V56.6683H60.9918L62.9167 44.1258H50.8817V35.9876C50.8817 32.5548 52.5637 29.2125 57.9504 29.2125H63.4205V18.5333C63.4205 18.5333 58.4543 17.685 53.7092 17.685C43.7984 17.685 37.3242 23.6916 37.3242 34.563V44.1221H26.3078V56.6646H37.3242V86.9805C16.5348 83.7108 0.602905 65.7163 0.602905 44.0098C0.602905 19.9869 20.08 0.509766 44.1029 0.509766C68.1258 0.509766 87.6029 19.9833 87.6029 44.0098Z" fill="white"/>
</g>
<defs>
<clipPath id="clip0_89_553">
<rect width="87" height="87" fill="white" transform="translate(0.602905)"/>
</clipPath>
</defs>
</svg>
