<svg width="88" height="87" viewBox="0 0 88 87" fill="none" xmlns="http://www.w3.org/2000/svg">
<path d="M43.897 7.83725C55.5115 7.83725 56.889 7.88075 61.4746 8.091C66.2161 8.3085 71.099 9.38875 74.5536 12.8434C78.0408 16.3306 79.0885 21.1664 79.306 25.9224C79.5162 30.508 79.5597 31.8855 79.5597 43.5C79.5597 55.1145 79.5162 56.492 79.306 61.0776C79.0921 65.7938 77.9865 70.7238 74.5536 74.1566C71.0664 77.6439 66.2342 78.6915 61.4746 78.909C56.889 79.1192 55.5115 79.1628 43.897 79.1628C32.2825 79.1628 30.905 79.1192 26.3193 78.909C21.6395 78.6951 16.6442 77.5641 13.2403 74.1566C9.77122 70.6875 8.70547 65.8046 8.48797 61.0776C8.27772 56.492 8.23422 55.1145 8.23422 43.5C8.23422 31.8855 8.27772 30.508 8.48797 25.9224C8.70185 21.2244 9.81835 16.2654 13.2403 12.8434C16.7203 9.36337 21.5742 8.3085 26.3193 8.091C30.905 7.88075 32.2825 7.83725 43.897 7.83725ZM43.897 0C32.0831 0 30.6005 0.05075 25.9605 0.261C19.2361 0.569125 12.5588 2.43963 7.69772 7.30075C2.81847 12.18 0.966098 18.8428 0.657973 25.5635C0.447723 30.2035 0.396973 31.6861 0.396973 43.5C0.396973 55.3139 0.447723 56.7965 0.657973 61.4365C0.966098 68.1536 2.84385 74.849 7.69772 79.6992C12.5733 84.5749 19.247 86.4309 25.9605 86.739C30.6005 86.9492 32.0831 87 43.897 87C55.7108 87 57.1935 86.9492 61.8335 86.739C68.5542 86.4309 75.2387 84.5567 80.0962 79.6992C84.9791 74.8164 86.8278 68.1572 87.136 61.4365C87.3462 56.7965 87.397 55.3139 87.397 43.5C87.397 31.6861 87.3462 30.2035 87.136 25.5635C86.8278 18.8391 84.9537 12.1582 80.0962 7.30075C75.2278 2.43237 68.5361 0.5655 61.8335 0.261C57.1935 0.05075 55.7108 0 43.897 0Z" fill="white"/>
<path d="M43.8969 21.1627C31.5611 21.1627 21.5597 31.1641 21.5597 43.5C21.5597 55.8358 31.5611 65.8372 43.8969 65.8372C56.2328 65.8372 66.2342 55.8358 66.2342 43.5C66.2342 31.1641 56.2328 21.1627 43.8969 21.1627ZM43.8969 58C35.8893 58 29.3969 51.5076 29.3969 43.5C29.3969 35.4923 35.8893 29 43.8969 29C51.9046 29 58.3969 35.4923 58.3969 43.5C58.3969 51.5076 51.9046 58 43.8969 58Z" fill="white"/>
<path d="M67.1187 25.4982C70.0016 25.4982 72.3387 23.1612 72.3387 20.2782C72.3387 17.3953 70.0016 15.0582 67.1187 15.0582C64.2358 15.0582 61.8987 17.3953 61.8987 20.2782C61.8987 23.1612 64.2358 25.4982 67.1187 25.4982Z" fill="white"/>
</svg>
